<svg width="570" height="593" viewBox="0 0 570 593" fill="none" xmlns="http://www.w3.org/2000/svg">
<g clipPath="url(#clip0_671_3155)">
<path d="M387.033 57.6539C376.519 47.1496 363.135 39.9821 348.56 37.0506C333.985 34.1191 318.869 35.5542 305.107 41.1759C302.505 42.2474 299.644 42.5265 296.883 41.9782C294.122 41.43 291.585 40.0789 289.59 38.0945L280.895 29.4049C262.054 10.5754 236.5 -0.00280762 209.854 -0.00280762C183.209 -0.00280762 157.655 10.5754 138.813 29.4049C119.972 48.2343 109.387 73.7724 109.387 100.401C109.387 127.03 119.972 152.568 138.813 171.398L238.9 271.421C238.9 271.421 276.07 276.382 284.341 268.116L387.033 164.341C401.189 150.193 409.141 131.005 409.141 110.998C409.141 90.99 401.189 71.8018 387.033 57.6539Z" fill="#263238"/>
<path d="M478.1 141.654C433.838 123.388 395.45 157.13 362.481 182.013C333.96 203.544 260.36 260.798 257.215 263.247C254.07 260.798 180.454 203.544 151.949 182.013C118.98 157.13 80.5918 123.388 36.3222 141.654C6.87603 153.802 -12.1715 187.459 8.98812 224.159C47.0215 290.125 122.834 413.783 122.834 413.783C127.915 422.255 135.089 429.28 143.669 434.182C152.249 439.084 161.946 441.7 171.829 441.778C176.893 441.824 216.846 441.778 257.215 441.778C297.584 441.778 337.537 441.824 342.609 441.778C352.49 441.698 362.183 439.082 370.76 434.179C379.338 429.277 386.51 422.254 391.588 413.783C391.588 413.783 467.401 290.125 505.434 224.152C526.594 187.459 507.546 153.802 478.1 141.654Z" fill="#93B4F6"/>
<path d="M128.361 582.046H17.8759C16.3639 582.046 14.8667 581.748 13.4699 581.17C12.0731 580.591 10.804 579.743 9.73525 578.674C8.66647 577.606 7.81893 576.337 7.24102 574.94C6.66311 573.544 6.36618 572.048 6.36719 570.537V460.314C6.36719 453.036 9.26002 446.056 14.4093 440.91C19.5586 435.764 26.5425 432.873 33.8246 432.873H128.361V582.046Z" fill="#93B4F6"/>
<path d="M106.361 482.222H39.791C35.9816 482.22 32.3289 480.706 29.6359 478.014C26.943 475.321 25.4302 471.67 25.4302 467.863V454.066C25.4261 449.469 26.3285 444.917 28.0858 440.669C29.8431 436.421 32.4209 432.561 35.6717 429.31C38.9225 426.058 42.7827 423.478 47.0316 421.719C51.2805 419.959 55.8348 419.053 60.4342 419.053H85.7101C90.3076 419.052 94.8602 419.956 99.108 421.713C103.356 423.471 107.215 426.048 110.467 429.296C113.718 432.545 116.297 436.401 118.057 440.646C119.816 444.891 120.722 449.44 120.722 454.035V467.84C120.725 469.727 120.356 471.596 119.635 473.34C118.915 475.084 117.858 476.67 116.524 478.006C115.191 479.341 113.606 480.401 111.863 481.125C110.119 481.848 108.249 482.221 106.361 482.222Z" fill="black"/>
<path d="M36.3297 469.95C36.2259 469.95 36.1232 469.929 36.0278 469.888C35.9324 469.846 35.8463 469.787 35.7747 469.712C35.6311 469.567 35.5505 469.372 35.5505 469.168C35.5505 468.965 35.6311 468.77 35.7747 468.625C42.4214 462.293 51.2587 458.771 60.4417 458.796H85.7176C94.319 458.794 102.633 461.89 109.136 467.516C109.283 467.652 109.372 467.839 109.383 468.039C109.394 468.239 109.327 468.436 109.195 468.587C109.064 468.738 108.879 468.832 108.679 468.85C108.48 468.867 108.281 468.806 108.126 468.679C101.903 463.297 93.9477 460.336 85.7176 460.336H60.434C51.6564 460.319 43.2103 463.685 36.8539 469.735C36.7129 469.87 36.5255 469.948 36.3297 469.95Z" fill="white"/>
<path d="M393.963 407.944H140.964C137.622 407.944 134.416 409.271 132.052 411.633C129.689 413.995 128.361 417.199 128.361 420.54V582.046H406.558V420.54C406.558 417.201 405.231 413.998 402.869 411.636C400.508 409.274 397.304 407.946 393.963 407.944Z" fill="#93B4F6"/>
<path d="M368.047 412.112H158.146C154.719 412.112 151.941 414.888 151.941 418.313V482.623C151.941 486.048 154.719 488.824 158.146 488.824H368.047C371.474 488.824 374.252 486.048 374.252 482.623V418.313C374.252 414.888 371.474 412.112 368.047 412.112Z" fill="#274D76"/>
<path d="M195.262 484.641C194.511 485.238 193.568 485.542 192.609 485.495C191.65 485.448 190.741 485.054 190.051 484.387C183.052 477.654 174.11 474.734 165.438 471.907C157.059 469.172 149.143 466.592 144.464 460.614C140.71 455.83 139.561 447.21 141.38 437.565C142.759 430.188 145.683 423.187 149.959 417.019C154.235 410.85 159.768 405.655 166.194 401.774L170.218 408.206C154.508 417.628 150.114 432.858 148.958 438.944C147.37 447.302 148.626 453.58 150.569 456.022C153.814 460.167 160.328 462.285 167.867 464.751C177.016 467.732 187.261 471.075 195.54 479.095C195.915 479.462 196.208 479.905 196.399 480.394C196.59 480.884 196.675 481.408 196.648 481.932C196.621 482.457 196.483 482.969 196.243 483.437C196.003 483.904 195.666 484.314 195.255 484.641H195.262Z" fill="white"/>
<path d="M555.963 392.545C553.743 392.496 551.546 392.998 549.569 394.007C547.591 395.015 545.895 396.498 544.632 398.322C535.659 411.896 528.529 428.852 514.846 428.852H406.558V545.245H542.227C543.293 545.244 544.359 545.179 545.418 545.053C546.355 545.18 547.301 545.244 548.247 545.245C554.011 545.243 559.539 542.954 563.616 538.88C567.692 534.807 569.983 529.282 569.985 523.521V406.635C569.985 402.911 568.51 399.339 565.882 396.699C563.255 394.059 559.689 392.565 555.963 392.545Z" fill="#274D76"/>
<path d="M166.356 457.571C165.845 457.58 165.358 457.792 165.003 458.159C164.648 458.527 164.454 459.021 164.463 459.531C164.472 460.042 164.684 460.528 165.052 460.883C165.42 461.238 165.914 461.432 166.425 461.423H166.502C172.507 461.207 193.181 462.193 207.311 484.533C207.486 484.808 207.727 485.033 208.013 485.19C208.299 485.346 208.619 485.428 208.945 485.427C209.307 485.429 209.663 485.327 209.97 485.134C210.184 484.999 210.37 484.823 210.516 484.617C210.662 484.41 210.766 484.177 210.822 483.93C210.878 483.683 210.884 483.428 210.841 483.178C210.798 482.929 210.706 482.69 210.571 482.477C195.309 458.387 172.854 457.324 166.356 457.571ZM178.142 450.006C177.889 449.971 177.631 449.987 177.384 450.052C177.138 450.117 176.906 450.23 176.702 450.385C176.499 450.539 176.328 450.732 176.2 450.953C176.071 451.173 175.987 451.417 175.953 451.67C175.918 451.923 175.934 452.18 175.999 452.427C176.064 452.674 176.177 452.905 176.332 453.108C176.486 453.312 176.68 453.482 176.9 453.611C177.121 453.739 177.365 453.823 177.618 453.858C177.872 453.858 203.549 457.709 214.873 479.449C214.989 479.674 215.149 479.873 215.342 480.036C215.536 480.199 215.759 480.322 216.001 480.399C216.242 480.475 216.496 480.504 216.748 480.482C217 480.461 217.246 480.39 217.47 480.273C217.695 480.157 217.895 479.998 218.058 479.804C218.221 479.611 218.344 479.387 218.421 479.146C218.497 478.905 218.526 478.651 218.504 478.399C218.483 478.147 218.412 477.902 218.295 477.677C206.008 454.081 179.252 450.152 178.119 449.998L178.142 450.006ZM193.651 448.465C193.554 448.699 193.504 448.949 193.505 449.202C193.505 449.455 193.555 449.705 193.653 449.939C193.75 450.172 193.893 450.384 194.072 450.562C194.252 450.74 194.465 450.881 194.7 450.977C194.861 451.038 210.301 457.44 214.873 466.153C215.037 466.464 215.283 466.725 215.585 466.907C215.886 467.089 216.232 467.185 216.584 467.185C216.895 467.182 217.202 467.106 217.478 466.961C217.93 466.722 218.268 466.314 218.42 465.826C218.572 465.339 218.524 464.811 218.287 464.358C213.061 454.397 196.85 447.687 196.164 447.41C195.931 447.309 195.68 447.256 195.426 447.253C195.172 447.25 194.92 447.297 194.685 447.391C194.449 447.486 194.234 447.626 194.053 447.804C193.872 447.981 193.727 448.193 193.628 448.427L193.651 448.465ZM208.829 447.34C208.58 447.255 208.317 447.221 208.054 447.241C207.792 447.261 207.537 447.335 207.304 447.458C207.071 447.58 206.866 447.749 206.701 447.954C206.536 448.158 206.415 448.395 206.345 448.648C206.275 448.902 206.257 449.167 206.293 449.427C206.33 449.687 206.419 449.938 206.556 450.162C206.692 450.387 206.874 450.581 207.088 450.733C207.303 450.885 207.547 450.992 207.804 451.046C207.881 451.046 215.89 453.357 219.86 460.437C220.027 460.735 220.271 460.984 220.566 461.157C220.862 461.331 221.198 461.422 221.54 461.423C221.87 461.425 222.195 461.34 222.481 461.176C222.705 461.056 222.902 460.892 223.063 460.695C223.223 460.498 223.342 460.271 223.414 460.027C223.486 459.784 223.508 459.528 223.48 459.276C223.453 459.023 223.375 458.779 223.252 458.557C218.449 450.044 209.199 447.41 208.806 447.302L208.829 447.34ZM158.647 474.426C158.408 474.314 158.148 474.252 157.884 474.244C157.62 474.236 157.357 474.282 157.111 474.38C156.866 474.477 156.642 474.624 156.456 474.811C156.269 474.998 156.123 475.221 156.026 475.467C155.929 475.712 155.883 475.975 155.891 476.239C155.9 476.503 155.963 476.763 156.075 477.002C156.188 477.24 156.349 477.454 156.547 477.628C156.745 477.803 156.977 477.935 157.229 478.016C157.306 478.016 164.814 481.036 169.254 485.473C169.431 485.654 169.642 485.797 169.875 485.895C170.108 485.993 170.358 486.043 170.611 486.043C170.991 486.04 171.362 485.926 171.677 485.713C171.992 485.501 172.238 485.201 172.383 484.85C172.529 484.499 172.568 484.113 172.495 483.741C172.422 483.368 172.242 483.025 171.975 482.754C166.965 477.754 158.971 474.565 158.647 474.426ZM157.437 446.47C157.768 446.724 165.839 452.502 182.22 441.193C189.866 435.916 198.978 434.113 207.226 436.255C210.523 437.063 213.603 438.581 216.252 440.704C218.9 442.826 221.052 445.501 222.558 448.542C222.719 448.864 222.967 449.134 223.273 449.323C223.579 449.512 223.932 449.613 224.292 449.613C224.587 449.615 224.878 449.546 225.14 449.413C225.368 449.301 225.571 449.146 225.738 448.956C225.905 448.765 226.033 448.544 226.115 448.304C226.197 448.065 226.23 447.811 226.214 447.559C226.197 447.306 226.131 447.059 226.019 446.832C224.269 443.294 221.766 440.18 218.687 437.709C215.607 435.238 212.024 433.47 208.189 432.526C198.862 430.107 188.595 432.11 180.03 438.027C166.294 447.502 159.896 443.489 159.726 443.373C159.318 443.067 158.804 442.935 158.298 443.007C157.792 443.079 157.335 443.35 157.029 443.758C156.722 444.167 156.59 444.68 156.662 445.186C156.735 445.692 157.005 446.148 157.414 446.455L157.437 446.47ZM212.036 427.211C212.182 427.28 226.296 434.19 231.453 442.788C231.583 443.005 231.755 443.194 231.958 443.345C232.162 443.495 232.393 443.605 232.638 443.666C232.884 443.728 233.139 443.74 233.389 443.703C233.64 443.666 233.88 443.58 234.097 443.45C234.315 443.32 234.504 443.149 234.655 442.945C234.806 442.742 234.915 442.512 234.976 442.266C235.038 442.021 235.051 441.766 235.014 441.515C234.976 441.265 234.89 441.025 234.76 440.808C229.018 431.24 214.341 424.045 213.724 423.744C213.496 423.634 213.249 423.569 212.996 423.553C212.743 423.538 212.49 423.573 212.25 423.655C212.011 423.738 211.79 423.867 211.601 424.035C211.411 424.203 211.256 424.406 211.146 424.634C211.035 424.862 210.97 425.109 210.955 425.362C210.939 425.614 210.974 425.868 211.057 426.107C211.139 426.346 211.268 426.567 211.436 426.756C211.604 426.946 211.808 427.1 212.036 427.211ZM225.079 423.675C225.156 423.721 232.872 427.796 234.961 434.052C235.033 434.3 235.155 434.532 235.32 434.732C235.484 434.933 235.687 435.098 235.916 435.218C236.146 435.339 236.398 435.411 236.656 435.432C236.914 435.453 237.174 435.421 237.42 435.34C237.666 435.258 237.893 435.127 238.087 434.955C238.281 434.784 238.439 434.575 238.55 434.341C238.662 434.107 238.725 433.853 238.736 433.594C238.747 433.335 238.706 433.077 238.615 432.835C236.04 425.131 227.237 420.455 226.859 420.262C226.409 420.05 225.894 420.02 225.422 420.178C224.95 420.337 224.558 420.672 224.328 421.113C224.097 421.555 224.047 422.068 224.187 422.545C224.327 423.023 224.646 423.428 225.079 423.675ZM315.691 456.13C304.969 438.289 290.061 428.859 272.586 428.859C254.448 428.859 240.287 438.343 231.638 456.292C227.613 464.811 225.052 473.947 224.061 483.316C224.021 483.827 224.186 484.333 224.519 484.722C224.852 485.111 225.327 485.353 225.838 485.392C226.349 485.432 226.855 485.267 227.244 484.934C227.634 484.601 227.875 484.127 227.915 483.617C228.907 474.693 231.357 465.993 235.169 457.864C243.247 441.17 255.843 432.711 272.609 432.711C288.858 432.711 302.232 441.231 312.361 458.033C317.111 466.084 320.642 474.794 322.837 483.879C322.926 484.314 323.162 484.705 323.506 484.985C323.851 485.266 324.281 485.419 324.725 485.419C324.859 485.434 324.993 485.434 325.126 485.419C325.376 485.366 325.614 485.264 325.824 485.119C326.034 484.974 326.214 484.789 326.352 484.574C326.491 484.359 326.585 484.119 326.63 483.867C326.675 483.616 326.669 483.358 326.614 483.108C324.346 473.624 320.664 464.535 315.691 456.146V456.13ZM271.568 441.293C271.067 441.293 270.566 441.293 270.026 441.347C259.381 442.117 249.923 448.681 242.661 460.429C236.633 470.182 234.182 480.058 233.889 483.316C233.87 483.569 233.9 483.823 233.978 484.065C234.057 484.306 234.182 484.529 234.347 484.722C234.512 484.915 234.714 485.073 234.94 485.188C235.166 485.303 235.413 485.373 235.666 485.392C235.919 485.412 236.174 485.382 236.415 485.303C236.656 485.225 236.88 485.099 237.073 484.934C237.266 484.77 237.424 484.568 237.539 484.342C237.654 484.116 237.724 483.87 237.743 483.617C237.975 480.782 240.357 471.514 245.961 462.447C250.586 455.029 258.495 446.008 270.312 445.183C292.489 443.643 313.255 483.933 313.479 484.341C313.64 484.657 313.886 484.923 314.19 485.108C314.493 485.293 314.842 485.39 315.198 485.388C315.501 485.391 315.8 485.32 316.069 485.181C316.525 484.95 316.87 484.547 317.029 484.062C317.188 483.576 317.148 483.048 316.917 482.592C316.038 480.89 295.611 441.309 271.568 441.309V441.293ZM271.884 452.363H271.838C263.96 452.363 256.668 457.756 250.755 467.94C248.035 472.681 245.863 477.715 244.28 482.946C244.21 483.189 244.188 483.444 244.217 483.695C244.246 483.946 244.324 484.189 244.447 484.41C244.571 484.63 244.737 484.824 244.936 484.98C245.134 485.137 245.362 485.252 245.606 485.319C245.777 485.367 245.953 485.393 246.13 485.396C246.551 485.395 246.96 485.257 247.296 485.003C247.631 484.748 247.874 484.391 247.988 483.986C248.065 483.709 255.982 456.253 271.884 456.253C281.751 456.253 291.263 476.398 294.1 484.164C294.275 484.644 294.633 485.035 295.096 485.251C295.56 485.467 296.09 485.49 296.57 485.315C297.051 485.141 297.442 484.782 297.658 484.319C297.874 483.856 297.898 483.326 297.723 482.846C297.268 481.575 286.461 452.379 271.884 452.379V452.363ZM271.815 469.542C261.879 470.667 257.608 483.409 257.431 483.971C257.273 484.456 257.314 484.984 257.545 485.439C257.776 485.894 258.179 486.239 258.664 486.398C258.858 486.465 259.061 486.498 259.265 486.498C259.672 486.496 260.067 486.367 260.395 486.127C260.723 485.888 260.967 485.551 261.092 485.165C261.131 485.057 264.746 474.218 272.246 473.371C279.238 472.554 282.267 484.926 282.267 485.011C282.385 485.509 282.695 485.939 283.131 486.208C283.566 486.476 284.09 486.561 284.588 486.444C285.085 486.326 285.516 486.016 285.785 485.581C286.054 485.146 286.139 484.623 286.021 484.125C285.906 483.493 282.198 468.356 271.815 469.558V469.542ZM320.432 453.611C320.45 454.11 320.661 454.582 321.02 454.928C321.38 455.275 321.86 455.468 322.359 455.468H322.428C322.938 455.45 323.42 455.23 323.768 454.858C324.116 454.485 324.303 453.99 324.286 453.48C323.854 441.416 320.748 429.499 319.43 424.931C319.288 424.439 318.956 424.024 318.508 423.777C318.06 423.53 317.532 423.471 317.04 423.613C316.548 423.755 316.133 424.087 315.886 424.535C315.639 424.982 315.58 425.51 315.722 426.001C317.002 430.446 320.016 441.994 320.432 453.627V453.611ZM331.917 430.778C331.413 430.854 330.959 431.125 330.653 431.533C330.348 431.941 330.215 432.453 330.283 432.958C331.555 441.817 335.679 471.391 335.602 479.95C335.6 480.461 335.799 480.952 336.157 481.317C336.515 481.681 337.003 481.891 337.514 481.899C338.022 481.899 338.51 481.698 338.871 481.34C339.232 480.982 339.437 480.496 339.441 479.988C339.533 471.391 335.725 443.851 334.083 432.403C334.007 431.904 333.737 431.455 333.332 431.153C332.926 430.852 332.418 430.722 331.917 430.793V430.778ZM344.058 431.548C343.557 431.642 343.113 431.93 342.824 432.35C342.535 432.771 342.424 433.288 342.517 433.79C342.563 434.059 347.481 461.138 347.28 468.826C347.27 469.337 347.462 469.831 347.814 470.202C348.166 470.573 348.65 470.789 349.161 470.806H349.207C349.711 470.806 350.194 470.609 350.554 470.258C350.914 469.907 351.122 469.429 351.135 468.926C351.35 460.845 346.509 434.26 346.309 433.096C346.212 432.596 345.921 432.154 345.499 431.867C345.078 431.58 344.56 431.471 344.058 431.563V431.548ZM360.076 433.304C360.034 433.055 359.943 432.817 359.808 432.602C359.673 432.388 359.497 432.203 359.291 432.056C359.084 431.91 358.851 431.806 358.604 431.75C358.357 431.694 358.102 431.687 357.852 431.729C357.603 431.772 357.364 431.863 357.15 431.997C356.936 432.132 356.75 432.308 356.604 432.514C356.457 432.72 356.353 432.954 356.297 433.2C356.241 433.447 356.234 433.702 356.276 433.952C356.276 434.129 359.305 451.855 359.521 459.497C359.535 459.998 359.745 460.474 360.104 460.824C360.464 461.173 360.947 461.369 361.448 461.369H361.502C362.013 461.353 362.496 461.135 362.847 460.764C363.198 460.394 363.388 459.899 363.375 459.389C363.144 451.493 360.207 434.059 360.076 433.32V433.304Z" fill="#FFF3A1"/>
<path d="M349.523 485.25C348.995 485.099 348.506 484.833 348.092 484.471C347.678 484.11 347.349 483.661 347.128 483.158C346.907 482.655 346.8 482.109 346.814 481.56C346.829 481.011 346.964 480.471 347.211 479.98C351.836 471.16 360.662 467.655 368.54 464.512C377.351 460.999 384.959 457.964 387.241 448.542C389.923 437.487 382.824 426.718 376.395 419.638C371.789 414.623 366.616 410.161 360.978 406.342L365.218 400.048C366.69 400.988 401.193 423.559 394.718 450.283C391.527 463.479 380.843 467.739 371.423 471.499C363.984 474.465 357.432 477.076 354.064 483.401C353.639 484.188 352.954 484.802 352.126 485.14C351.297 485.477 350.377 485.516 349.523 485.25Z" fill="white"/>
<path d="M555.963 429.345C553.743 429.296 551.546 429.799 549.568 430.807C547.591 431.815 545.894 433.298 544.631 435.123C535.659 448.696 528.528 465.652 514.846 465.652H404.245V582.046H542.226C543.293 582.044 544.358 581.98 545.418 581.853C546.355 581.98 547.3 582.044 548.247 582.046C554.011 582.044 559.539 579.754 563.615 575.681C567.691 571.607 569.982 566.083 569.984 560.322V443.435C569.984 439.711 568.51 436.139 565.882 433.499C563.255 430.859 559.689 429.365 555.963 429.345Z" fill="#93B4F6"/>
<path d="M555.901 433.197C553.415 433.201 551.015 434.107 549.146 435.746C547.278 437.385 546.068 439.646 545.741 442.11L530.525 557.995C530.213 560.417 530.401 562.877 531.077 565.224C531.753 567.571 532.904 569.754 534.457 571.639C536.011 573.524 537.935 575.071 540.11 576.185C542.285 577.298 544.665 577.954 547.103 578.112C549.542 578.27 551.987 577.927 554.288 577.105C556.589 576.282 558.696 574.996 560.481 573.328C562.265 571.659 563.688 569.643 564.663 567.403C565.637 565.164 566.142 562.748 566.146 560.306V443.435C566.141 440.721 565.061 438.119 563.14 436.2C561.22 434.281 558.617 433.201 555.901 433.197Z" fill="white"/>
<path d="M529.508 576.121C527.454 573.784 525.924 571.036 525.019 568.06C524.114 565.084 523.854 561.949 524.258 558.865L538.38 451.285L539.922 451.485L525.8 559.066C525.422 561.932 525.66 564.845 526.501 567.612C527.341 570.378 528.763 572.933 530.672 575.105L529.508 576.121Z" fill="white"/>
<path d="M562.89 562.254C564.15 554.497 558.879 547.188 551.117 545.929C543.356 544.67 536.043 549.937 534.783 557.694C533.523 565.451 538.793 572.759 546.555 574.019C554.317 575.278 561.63 570.01 562.89 562.254Z" fill="#93B4F6"/>
<path d="M559.607 534.262C564.489 529.383 564.489 521.471 559.607 516.592C554.724 511.712 546.807 511.712 541.924 516.592C537.042 521.471 537.042 529.383 541.925 534.262C546.807 539.142 554.724 539.142 559.607 534.262Z" fill="#93B4F6"/>
<path d="M552.617 503.816C558.501 503.816 563.27 499.049 563.27 493.169C563.27 487.289 558.501 482.523 552.617 482.523C546.734 482.523 541.964 487.289 541.964 493.169C541.964 499.049 546.734 503.816 552.617 503.816Z" fill="#93B4F6"/>
<path d="M563.001 468.279C564.1 463.625 561.216 458.961 556.559 457.862C551.901 456.764 547.235 459.646 546.136 464.301C545.037 468.955 547.921 473.619 552.578 474.717C557.235 475.816 561.902 472.933 563.001 468.279Z" fill="#93B4F6"/>
<path d="M563.034 445.755C563.957 441.846 561.534 437.929 557.623 437.006C553.712 436.084 549.792 438.505 548.869 442.414C547.946 446.323 550.369 450.239 554.28 451.162C558.191 452.085 562.11 449.664 563.034 445.755Z" fill="#93B4F6"/>
<path d="M378.26 514.315H327.786V584.28H378.26V514.315Z" fill="#274D76"/>
<path d="M323.007 505.695H165.986C155.407 505.695 146.83 514.266 146.83 524.839V572.308C146.83 582.881 155.407 591.452 165.986 591.452H323.007C333.586 591.452 342.162 582.881 342.162 572.308V524.839C342.162 514.266 333.586 505.695 323.007 505.695Z" fill="white"/>
<path d="M323.014 504.154H165.994C160.506 504.16 155.245 506.342 151.365 510.219C147.485 514.097 145.303 519.355 145.296 524.838V572.308C145.3 577.793 147.482 583.051 151.363 586.929C155.244 590.808 160.506 592.988 165.994 592.992H323.014C328.502 592.986 333.762 590.805 337.643 586.927C341.523 583.05 343.705 577.792 343.711 572.308V524.838C343.703 519.355 341.52 514.099 337.64 510.222C333.761 506.344 328.501 504.162 323.014 504.154ZM342.17 572.308C342.17 577.385 340.152 582.254 336.559 585.845C332.967 589.435 328.095 591.451 323.014 591.451H165.994C163.478 591.453 160.986 590.958 158.662 589.996C156.337 589.035 154.225 587.625 152.446 585.847C150.667 584.069 149.256 581.958 148.294 579.635C147.332 577.312 146.837 574.822 146.838 572.308V524.838C146.838 519.761 148.856 514.892 152.449 511.302C156.041 507.712 160.913 505.695 165.994 505.695H323.014C328.094 505.697 332.965 507.715 336.557 511.304C340.149 514.894 342.168 519.762 342.17 524.838V572.308Z" fill="#93B4F6"/>
<path d="M408.069 443.805H406.527V582.115H408.069V443.805Z" fill="#274D76"/>
<path d="M439.835 537.773C439.835 534.937 438.708 532.218 436.701 530.212C434.695 528.207 431.973 527.081 429.136 527.081C431.973 527.081 434.695 525.954 436.701 523.949C438.708 521.943 439.835 519.224 439.835 516.388C439.835 513.552 438.708 510.832 436.701 508.827C434.695 506.822 431.973 505.695 429.136 505.695H410.566C413.79 501.733 415.429 496.718 415.167 491.618C414.905 486.518 412.76 481.697 409.148 478.086C408.269 477.209 407.079 476.717 405.837 476.717C404.596 476.717 403.405 477.209 402.526 478.086C402.526 478.086 383.772 494.132 372.91 502.737C365.526 508.6 358.18 515.132 358.18 524.816V572.285C358.18 577.362 360.198 582.232 363.79 585.822C367.383 589.412 372.255 591.429 377.335 591.429H400.229C401.218 591.429 402.204 591.354 403.182 591.205H429.136C431.973 591.205 434.695 590.079 436.701 588.074C438.708 586.068 439.835 583.349 439.835 580.513C439.835 577.677 438.708 574.957 436.701 572.952C434.695 570.947 431.973 569.82 429.136 569.82C431.973 569.82 434.695 568.694 436.701 566.688C438.708 564.683 439.835 561.963 439.835 559.128C439.835 556.292 438.708 553.572 436.701 551.567C434.695 549.561 431.973 548.435 429.136 548.435C431.968 548.435 434.685 547.313 436.691 545.314C438.696 543.315 439.827 540.604 439.835 537.773Z" fill="white"/>
<path d="M441.377 537.773C441.376 535.591 440.792 533.45 439.684 531.57C438.577 529.69 436.987 528.14 435.079 527.08C437.449 525.764 439.315 523.698 440.383 521.208C441.452 518.717 441.662 515.943 440.982 513.32C440.302 510.697 438.77 508.373 436.626 506.714C434.482 505.056 431.848 504.155 429.136 504.154H413.542C416.123 499.913 417.201 494.927 416.601 490C416.001 485.072 413.759 480.49 410.235 476.991C409.074 475.835 407.504 475.182 405.865 475.175C404.225 475.167 402.649 475.806 401.478 476.953C400.484 477.808 382.423 493.238 371.947 501.558C364.239 507.721 356.638 514.577 356.638 524.838V572.308C356.643 577.793 358.824 583.051 362.705 586.929C366.586 590.808 371.848 592.988 377.336 592.992H400.23C401.261 592.992 402.292 592.917 403.313 592.769H429.152C431.863 592.768 434.497 591.867 436.641 590.209C438.785 588.55 440.318 586.227 440.998 583.604C441.678 580.98 441.467 578.206 440.399 575.715C439.33 573.225 437.465 571.159 435.095 569.843C437.003 568.783 438.592 567.233 439.699 565.353C440.805 563.473 441.389 561.331 441.389 559.15C441.389 556.969 440.805 554.828 439.699 552.948C438.592 551.068 437.003 549.517 435.095 548.458C437 547.398 438.587 545.848 439.691 543.97C440.796 542.091 441.378 539.952 441.377 537.773ZM429.136 548.473C431.974 548.473 434.695 549.6 436.702 551.605C438.708 553.61 439.836 556.33 439.836 559.166C439.836 562.002 438.708 564.721 436.702 566.727C434.695 568.732 431.974 569.858 429.136 569.858C431.974 569.858 434.695 570.985 436.702 572.99C438.708 574.995 439.836 577.715 439.836 580.551C439.836 583.387 438.708 586.106 436.702 588.112C434.695 590.117 431.974 591.244 429.136 591.244H403.182C402.205 591.392 401.218 591.467 400.23 591.467H377.336C372.255 591.467 367.383 589.45 363.791 585.86C360.198 582.27 358.18 577.401 358.18 572.323V524.838C358.18 515.155 365.526 508.622 372.911 502.76C383.772 494.132 402.527 478.108 402.527 478.108C402.961 477.674 403.477 477.329 404.045 477.093C404.614 476.858 405.223 476.737 405.838 476.737C406.453 476.737 407.061 476.858 407.63 477.093C408.198 477.329 408.714 477.674 409.148 478.108C412.761 481.72 414.905 486.541 415.167 491.641C415.429 496.74 413.79 501.756 410.567 505.718H429.136C431.974 505.718 434.695 506.845 436.702 508.85C438.708 510.855 439.836 513.575 439.836 516.411C439.836 519.247 438.708 521.966 436.702 523.972C434.695 525.977 431.974 527.103 429.136 527.103C430.565 527.065 431.987 527.313 433.318 527.833C434.649 528.353 435.863 529.134 436.887 530.13C437.911 531.127 438.725 532.318 439.281 533.634C439.836 534.95 440.123 536.364 440.123 537.792C440.123 539.22 439.836 540.634 439.281 541.95C438.725 543.266 437.911 544.457 436.887 545.454C435.863 546.45 434.649 547.231 433.318 547.751C431.987 548.271 430.565 548.519 429.136 548.481V548.473Z" fill="#93B4F6"/>
<path d="M250.971 586.883C272.143 586.883 289.305 569.731 289.305 548.573C289.305 527.415 272.143 510.263 250.971 510.263C229.8 510.263 212.637 527.415 212.637 548.573C212.637 569.731 229.8 586.883 250.971 586.883Z" fill="#274D76"/>
<path d="M262.629 560.225C269.068 553.79 269.068 543.357 262.629 536.922C256.19 530.487 245.75 530.486 239.311 536.922C232.872 543.357 232.872 553.79 239.311 560.225C245.75 566.66 256.19 566.66 262.629 560.225Z" fill="white"/>
<path d="M250.971 530.555C247.405 530.555 243.919 531.611 240.954 533.591C237.989 535.571 235.678 538.385 234.314 541.678C232.949 544.97 232.592 548.593 233.288 552.089C233.983 555.584 235.701 558.795 238.222 561.315C240.744 563.835 243.956 565.551 247.454 566.246C250.951 566.941 254.576 566.584 257.871 565.221C261.166 563.857 263.981 561.547 265.963 558.584C267.944 555.621 269.001 552.137 269.001 548.573C268.997 543.796 267.096 539.215 263.716 535.837C260.335 532.458 255.752 530.559 250.971 530.555ZM250.971 565.051C247.71 565.051 244.522 564.085 241.811 562.274C239.099 560.464 236.986 557.89 235.738 554.879C234.49 551.868 234.163 548.555 234.8 545.359C235.436 542.162 237.006 539.226 239.312 536.922C241.618 534.617 244.556 533.048 247.755 532.412C250.953 531.776 254.268 532.103 257.281 533.35C260.294 534.597 262.869 536.709 264.681 539.419C266.493 542.129 267.46 545.314 267.46 548.573C267.46 552.944 265.722 557.135 262.63 560.225C259.538 563.315 255.344 565.051 250.971 565.051Z" fill="#93B4F6"/>
<path d="M6.36719 527.011V570.536C6.36618 572.047 6.66311 573.544 7.24102 574.94C7.81893 576.336 8.66647 577.605 9.73525 578.674C10.804 579.743 12.0731 580.591 13.4699 581.169C14.8667 581.748 16.3639 582.045 17.8759 582.045H128.361V499.571H33.8246C26.5425 499.571 19.5586 502.462 14.4093 507.608C9.26002 512.754 6.36719 519.733 6.36719 527.011Z" fill="white"/>
<path d="M33.8246 499.571C26.5425 499.571 19.5586 502.462 14.4093 507.608C9.26002 512.754 6.36719 519.733 6.36719 527.011V570.536C6.36618 572.047 6.66311 573.544 7.24102 574.94C7.81893 576.336 8.66647 577.605 9.73525 578.674C10.804 579.743 12.0731 580.591 13.4699 581.169C14.8667 581.748 16.3639 582.045 17.8759 582.045H128.361V499.571H33.8246ZM126.819 580.505H17.8759C15.2355 580.49 12.7074 579.435 10.8411 577.569C8.97475 575.702 7.92102 573.175 7.90888 570.536V527.011C7.91704 520.144 10.6501 513.561 15.5084 508.706C20.3668 503.851 26.9538 501.119 33.8246 501.111H126.819V580.505Z" fill="#93B4F6"/>
<path d="M410.559 504.925H394.433V506.466H410.559V504.925Z" fill="#93B4F6"/>
<path d="M433.915 526.179H417.165V527.443H433.915V526.179Z" fill="#93B4F6"/>
<path d="M433.915 547.942H417.165V549.205H433.915V547.942Z" fill="#93B4F6"/>
<path d="M433.915 569.712H417.165V570.976H433.915V569.712Z" fill="#93B4F6"/>
<path d="M128.438 443.735H126.896V582.045H128.438V443.735Z" fill="#274D76"/>
<path d="M279.084 407.182H240.665V408.722H279.084V407.182Z" fill="white"/>
<path d="M363.368 496.536H140.532V498.076H363.368V496.536Z" fill="white"/>
<path d="M283.408 221.34V187.706H235.115V221.34C235.115 230.106 228.007 244.15 219.235 244.15L259.034 287.29L299.287 244.15C290.523 244.181 283.408 230.106 283.408 221.34Z" fill="#EC8C92"/>
<path d="M304.783 122.895C303.254 122.893 301.783 122.308 300.669 121.261C299.556 120.213 298.882 118.782 298.786 117.256C298.015 104.669 293.113 74.7633 265.37 66.5359C262.363 83.636 254.168 99.3988 241.896 111.689C229.625 123.979 213.87 132.202 196.765 135.244C195.822 137.58 195.338 140.075 195.339 142.594C195.339 147.82 197.417 152.832 201.114 156.528C204.812 160.223 209.828 162.299 215.057 162.299H221.085V175.049C221.086 180.138 222.354 185.146 224.777 189.622C227.199 194.098 230.699 197.901 234.96 200.686L243.185 206.079C248.175 209.338 254.006 211.074 259.967 211.074C265.927 211.074 271.759 209.338 276.748 206.079L285.05 200.686C289.318 197.897 292.823 194.089 295.249 189.606C297.674 185.123 298.943 180.107 298.94 175.01V162.299H304.799C310.028 162.299 315.044 160.223 318.742 156.528C322.44 152.832 324.517 147.82 324.517 142.594C324.517 140.005 324.006 137.441 323.014 135.05C322.022 132.659 320.569 130.486 318.736 128.657C316.903 126.827 314.727 125.377 312.333 124.388C309.939 123.4 307.374 122.892 304.783 122.895Z" fill="#F2BDBA"/>
<path d="M226.797 159.626C220.711 159.626 214.762 157.823 209.701 154.444C204.641 151.064 200.697 146.262 198.368 140.642C196.038 135.023 195.429 128.84 196.616 122.874C197.804 116.909 200.735 111.429 205.038 107.128C209.342 102.827 214.825 99.8984 220.794 98.7118C226.763 97.5252 232.95 98.1342 238.573 100.462C244.196 102.789 249.002 106.731 252.383 111.788C255.765 116.846 257.569 122.791 257.569 128.874C257.553 137.025 254.306 144.837 248.538 150.601C242.771 156.365 234.953 159.61 226.797 159.626ZM226.797 99.6616C221.016 99.6616 215.365 101.375 210.558 104.585C205.751 107.795 202.004 112.357 199.792 117.695C197.579 123.032 197.001 128.906 198.128 134.573C199.256 140.239 202.04 145.444 206.128 149.53C210.216 153.615 215.424 156.397 221.095 157.524C226.765 158.652 232.642 158.073 237.983 155.862C243.324 153.651 247.889 149.907 251.101 145.103C254.313 140.299 256.028 134.651 256.028 128.874C256.011 121.131 252.926 113.71 247.448 108.236C241.97 102.761 234.545 99.6779 226.797 99.6616Z" fill="#131314"/>
<path d="M181.965 137.309C176.254 137.311 170.558 136.743 164.96 135.614C164.859 135.594 164.763 135.554 164.677 135.496C164.591 135.439 164.517 135.365 164.46 135.279C164.403 135.194 164.363 135.097 164.343 134.996C164.323 134.895 164.323 134.791 164.343 134.69C164.364 134.588 164.404 134.492 164.461 134.407C164.519 134.321 164.592 134.247 164.678 134.19C164.764 134.133 164.86 134.093 164.962 134.073C165.063 134.053 165.167 134.053 165.268 134.073C178.639 136.76 192.463 136.153 205.546 132.306C218.629 128.459 230.579 121.486 240.363 111.991C250.147 102.496 257.471 90.7641 261.703 77.8074C265.935 64.8508 266.948 51.0594 264.653 37.6243C264.636 37.524 264.638 37.4213 264.66 37.3221C264.682 37.2228 264.724 37.1289 264.783 37.0458C264.842 36.9627 264.916 36.8921 265.003 36.838C265.089 36.7839 265.185 36.7474 265.285 36.7306C265.487 36.6972 265.693 36.7449 265.859 36.8633C266.025 36.9818 266.138 37.1612 266.172 37.3623C268.273 49.6241 267.673 62.1966 264.411 74.2024C261.15 86.2082 255.306 97.3583 247.289 106.875C239.271 116.391 229.272 124.044 217.99 129.301C206.707 134.557 194.413 137.29 181.965 137.309Z" fill="white"/>
<path d="M293.86 159.626C287.774 159.626 281.825 157.823 276.764 154.444C271.704 151.064 267.76 146.262 265.431 140.642C263.102 135.023 262.492 128.84 263.68 122.874C264.867 116.909 267.798 111.429 272.101 107.128C276.405 102.827 281.888 99.8984 287.857 98.7118C293.826 97.5252 300.014 98.1342 305.636 100.462C311.259 102.789 316.065 106.731 319.446 111.788C322.828 116.846 324.633 122.791 324.633 128.874C324.616 137.025 321.369 144.837 315.602 150.601C309.834 156.365 302.017 159.61 293.86 159.626ZM293.86 99.6616C288.079 99.6616 282.428 101.375 277.621 104.585C272.814 107.795 269.067 112.357 266.855 117.695C264.643 123.032 264.064 128.906 265.192 134.573C266.32 140.239 269.103 145.444 273.191 149.53C277.279 153.615 282.488 156.397 288.158 157.524C293.828 158.652 299.705 158.073 305.046 155.862C310.388 153.651 314.953 149.907 318.165 145.103C321.376 140.299 323.091 134.651 323.091 128.874C323.075 121.131 319.99 113.71 314.511 108.236C309.033 102.761 301.608 99.6779 293.86 99.6616Z" fill="#131314"/>
<path d="M290.238 134.79H285.451C284.553 134.79 283.692 134.433 283.058 133.799C282.423 133.165 282.067 132.305 282.067 131.408C282.066 130.649 282.214 129.898 282.504 129.197C282.794 128.496 283.219 127.859 283.755 127.323C284.291 126.786 284.928 126.361 285.629 126.07C286.33 125.78 287.081 125.63 287.84 125.63C289.374 125.63 290.844 126.239 291.928 127.322C293.013 128.406 293.622 129.875 293.622 131.408C293.622 132.305 293.265 133.165 292.63 133.799C291.996 134.433 291.135 134.79 290.238 134.79Z" fill="black"/>
<path d="M235.439 134.79H230.652C229.754 134.79 228.893 134.433 228.259 133.799C227.624 133.165 227.268 132.305 227.268 131.408C227.267 130.649 227.415 129.898 227.705 129.197C227.995 128.496 228.42 127.859 228.956 127.323C229.492 126.786 230.129 126.361 230.83 126.07C231.531 125.78 232.282 125.63 233.041 125.63C234.574 125.63 236.045 126.239 237.129 127.322C238.213 128.406 238.823 129.875 238.823 131.408C238.82 132.304 238.463 133.163 237.829 133.797C237.195 134.431 236.335 134.788 235.439 134.79Z" fill="black"/>
<path d="M259.729 168.847C262.731 168.862 265.655 169.811 268.093 171.562C270.531 173.313 272.363 175.78 273.334 178.619L271.875 179.113C271.006 176.58 269.37 174.379 267.194 172.818C265.017 171.256 262.409 170.41 259.729 170.397C257.05 170.384 254.433 171.205 252.242 172.746C250.051 174.287 248.394 176.471 247.501 178.996L246.046 178.481C247.045 175.655 248.899 173.209 251.35 171.483C253.802 169.757 256.73 168.836 259.729 168.847Z" fill="#131314"/>
<path d="M329.998 391.32L307.643 381.806C303.9 380.211 299.702 380.035 295.838 381.311C291.974 382.587 288.708 385.228 286.653 388.739L286.345 389.271C285.276 391.101 284.591 393.129 284.334 395.233C284.076 397.336 284.251 399.47 284.847 401.503C285.443 403.537 286.448 405.427 287.8 407.059C289.153 408.691 290.824 410.031 292.712 410.995L299.326 414.431C301.368 415.471 303.698 415.802 305.949 415.373C308.201 414.943 310.245 413.777 311.759 412.058L329.998 391.32Z" fill="#EC8C92"/>
<path d="M388.088 381.035C376.749 352.986 360.261 341.454 347.557 336.77C342.769 335.038 337.531 334.996 332.716 336.651C327.9 338.307 323.796 341.559 321.087 345.868C312.284 359.735 298.694 381.682 294.924 390.718C292.072 397.567 296.219 408.606 307.157 408.352C304.205 416.672 316.261 422.349 325.858 419.091C324.64 425.6 336.272 428.728 342.169 425.493C346.255 432.017 362.042 432.672 383.571 408.067C386.749 404.418 388.853 399.96 389.65 395.189C390.447 390.417 389.907 385.518 388.088 381.035Z" fill="#F2BDBA"/>
<path d="M406.785 206.229L333.093 325.472L334.404 326.282L408.096 207.039L406.785 206.229Z" fill="#131314"/>
<path d="M299.711 389.779C287.894 389.779 284.973 386.027 284.973 386.027C278.236 361.823 293.229 321.178 293.229 321.178C304.568 318.967 320.37 329.93 320.37 345.915L320.563 365.027C320.624 374.372 313.818 389.779 299.711 389.779Z" fill="#74BAAB"/>
<path d="M292.419 385.511C283.261 387.822 275.784 382.06 275.722 372.669L275.53 342.564C275.468 333.181 282.845 323.721 292.003 321.425C301.168 319.114 308.637 324.884 308.699 334.267L308.892 364.373C308.961 373.756 301.576 383.223 292.419 385.511Z" fill="#FFF3A1"/>
<path d="M300.097 342.147L283.701 345.868C283.491 345.92 283.272 345.92 283.063 345.87C282.853 345.819 282.658 345.72 282.495 345.578C282.332 345.437 282.205 345.259 282.125 345.059C282.045 344.859 282.015 344.642 282.036 344.428C282.039 343.93 282.203 343.447 282.503 343.05C282.803 342.653 283.223 342.364 283.701 342.224L300.097 338.527C300.307 338.477 300.525 338.477 300.735 338.529C300.945 338.58 301.139 338.681 301.302 338.823C301.465 338.965 301.591 339.143 301.671 339.343C301.751 339.544 301.782 339.76 301.762 339.975C301.752 340.467 301.585 340.943 301.285 341.334C300.986 341.725 300.569 342.01 300.097 342.147Z" fill="#74BAAB"/>
<path d="M300.097 361.361L283.701 365.058C283.491 365.11 283.271 365.111 283.061 365.06C282.851 365.009 282.655 364.908 282.492 364.766C282.329 364.624 282.202 364.445 282.123 364.244C282.043 364.043 282.014 363.825 282.036 363.61C282.041 363.114 282.206 362.633 282.505 362.237C282.805 361.842 283.224 361.553 283.701 361.414L300.097 357.717C300.307 357.665 300.527 357.664 300.737 357.715C300.947 357.766 301.143 357.867 301.306 358.009C301.469 358.151 301.596 358.33 301.675 358.531C301.755 358.732 301.784 358.95 301.762 359.165C301.757 359.661 301.592 360.142 301.293 360.538C300.993 360.933 300.573 361.222 300.097 361.361Z" fill="#74BAAB"/>
<path d="M296.289 340.884C296.289 343.75 294.339 346.515 291.872 347.047C289.405 347.578 287.401 345.706 287.378 342.841C287.355 339.975 289.336 337.209 291.795 336.678C294.254 336.146 296.266 338.011 296.289 340.884Z" fill="#274D76"/>
<path d="M296.289 360.559C296.289 363.425 294.339 366.19 291.872 366.722C289.405 367.253 287.401 365.382 287.378 362.516C287.355 359.65 289.336 356.884 291.795 356.353C294.254 355.821 296.266 357.686 296.289 360.559Z" fill="#274D76"/>
<path d="M190.028 391.32L212.383 381.806C216.126 380.21 220.324 380.034 224.188 381.311C228.052 382.587 231.318 385.228 233.373 388.739L233.689 389.27C234.757 391.101 235.44 393.129 235.697 395.232C235.954 397.335 235.779 399.469 235.183 401.502C234.587 403.535 233.583 405.426 232.231 407.058C230.879 408.69 229.209 410.029 227.321 410.995L220.692 414.43C218.652 415.471 216.322 415.803 214.072 415.374C211.822 414.944 209.779 413.777 208.266 412.058L190.028 391.32Z" fill="#EC8C92"/>
<path d="M312.654 407.351L312.045 405.956C317.752 403.584 322.784 399.836 326.691 395.048L327.885 396.026C323.821 400.999 318.588 404.889 312.654 407.351Z" fill="#131314"/>
<path d="M331.192 417.396L330.422 416.048C335.471 413.187 339.891 409.338 343.418 404.731L344.636 405.671C340.984 410.439 336.413 414.425 331.192 417.396Z" fill="#131314"/>
<path d="M346.078 424.214L345.26 422.904C349.671 420.043 353.628 416.537 357 412.505L358.172 413.506C354.697 417.658 350.62 421.267 346.078 424.214Z" fill="#131314"/>
<path d="M131.598 381.875C142.945 353.217 159.634 341.5 172.453 336.77C177.244 335.044 182.482 335.005 187.298 336.66C192.115 338.314 196.222 341.563 198.939 345.868C207.734 359.734 221.332 381.682 225.094 390.718C227.946 397.567 223.806 408.606 212.86 408.352C215.813 416.672 203.765 422.349 194.16 419.091C195.385 425.6 183.746 428.728 177.856 425.492C173.732 432.071 157.691 432.687 135.861 407.389C132.888 403.93 130.919 399.724 130.168 395.226C129.417 390.729 129.911 386.111 131.598 381.875Z" fill="#F2BDBA"/>
<path d="M113.2 206.248L111.889 207.058L183.932 323.543L185.244 322.733L113.2 206.248Z" fill="#131314"/>
<path d="M220.314 389.779C232.139 389.779 235.061 386.027 235.061 386.027C241.79 361.823 226.805 321.178 226.805 321.178C215.466 318.967 199.663 329.93 199.663 345.915L199.502 365.02C199.401 374.372 206.208 389.779 220.314 389.779Z" fill="#74BAAB"/>
<path d="M227.607 385.511C236.764 387.822 244.241 382.06 244.295 372.669L244.496 342.564C244.55 333.181 237.173 323.721 228.015 321.425C218.857 319.114 211.38 324.884 211.326 334.267L211.126 364.357C211.064 373.756 218.441 383.223 227.607 385.511Z" fill="#FFF3A1"/>
<path d="M205.938 406.727C200.28 404.093 195.333 400.147 191.508 395.218L192.726 394.27C196.401 399.012 201.158 402.805 206.601 405.332L205.938 406.727Z" fill="#131314"/>
<path d="M187.168 416.387C182.024 413.129 177.571 408.891 174.064 403.915L175.32 403.029C178.699 407.83 182.986 411.923 187.939 415.077L187.168 416.387Z" fill="#131314"/>
<path d="M172.083 422.981C168.263 420.23 164.798 417.016 161.769 413.413L162.948 412.412C165.886 415.92 169.253 419.046 172.969 421.718L172.083 422.981Z" fill="#131314"/>
<path d="M231.577 386.79C230.172 386.787 228.774 386.609 227.414 386.258C217.948 383.893 210.294 374.071 210.355 364.357L210.556 334.251C210.556 329.483 212.429 325.446 215.751 322.873C219.074 320.3 223.521 319.491 228.208 320.662C237.674 323.035 245.328 332.849 245.267 342.556L245.066 372.661C245.066 377.422 243.193 381.467 239.871 384.04C237.493 385.861 234.572 386.829 231.577 386.79ZM227.792 384.771C232.008 385.819 235.955 385.133 238.923 382.838C241.891 380.542 243.502 376.945 243.548 372.669L243.748 342.563C243.802 333.527 236.672 324.383 227.854 322.172C223.645 321.117 219.69 321.802 216.723 324.106C213.755 326.409 212.144 329.991 212.097 334.274L211.897 364.357C211.843 373.393 218.973 382.537 227.792 384.748V384.771Z" fill="white"/>
<path d="M248.265 335.607C247.846 334.408 246.967 333.424 245.823 332.871C244.679 332.318 243.362 332.241 242.16 332.657L226.389 338.003C225.697 338.318 225.117 338.836 224.728 339.489C224.338 340.141 224.156 340.897 224.207 341.655C224.207 344.212 225.95 346.685 228.146 347.171C228.611 347.271 229.092 347.271 229.557 347.171C229.889 347.094 245.313 341.701 245.313 341.701C246.512 341.283 247.497 340.407 248.05 339.265C248.604 338.122 248.681 336.807 248.265 335.607Z" fill="#274D76"/>
<path d="M248.265 354.681C247.846 353.482 246.967 352.498 245.823 351.945C244.679 351.392 243.361 351.315 242.16 351.73C242.16 351.73 226.612 357 226.389 357.084C225.697 357.397 225.117 357.914 224.727 358.565C224.337 359.216 224.156 359.971 224.207 360.728C224.207 363.294 225.949 365.766 228.146 366.252C228.611 366.352 229.092 366.352 229.557 366.252C229.888 366.175 245.313 360.782 245.313 360.782C245.908 360.575 246.456 360.254 246.926 359.835C247.397 359.416 247.78 358.909 248.054 358.343C248.328 357.776 248.488 357.161 248.524 356.533C248.56 355.905 248.472 355.275 248.265 354.681Z" fill="#274D76"/>
<path d="M318.15 337.872C316.419 333.326 313.42 329.372 309.509 326.478L310.434 325.253C314.584 328.317 317.763 332.511 319.591 337.333L318.15 337.872Z" fill="white"/>
<path d="M201.475 339.043L200.003 338.581C201.501 333.916 204.262 329.756 207.981 326.563L208.998 327.719C205.489 330.724 202.884 334.645 201.475 339.043Z" fill="white"/>
<path d="M288.441 386.79C285.45 386.834 282.531 385.871 280.155 384.055C276.832 381.482 274.982 377.438 274.952 372.677L274.759 342.571C274.697 332.865 282.352 323.05 291.818 320.677C296.497 319.507 300.921 320.292 304.267 322.888C307.612 325.485 309.439 329.498 309.47 334.267L309.663 364.372C309.724 374.071 302.07 383.893 292.604 386.258C291.244 386.609 289.846 386.787 288.441 386.79ZM295.973 321.694C294.699 321.698 293.43 321.858 292.195 322.172C283.369 324.383 276.239 333.527 276.301 342.563L276.493 372.669C276.493 376.945 278.158 380.558 281.118 382.838C284.078 385.118 288.056 385.819 292.257 384.771C301.076 382.561 308.206 373.416 308.144 364.38L307.928 334.313C307.928 330.03 306.263 326.424 303.303 324.144C301.203 322.53 298.622 321.668 295.973 321.694Z" fill="white"/>
<path d="M197.405 135.683C197.225 135.687 197.049 135.627 196.908 135.515C196.767 135.402 196.67 135.244 196.634 135.067C195.332 128.741 196.056 122.166 198.703 116.274C201.35 110.383 205.786 105.473 211.381 102.243C216.977 99.0118 223.448 97.6235 229.877 98.2747C236.307 98.9258 242.368 101.583 247.201 105.87C247.288 105.933 247.361 106.014 247.415 106.107C247.469 106.2 247.503 106.303 247.515 106.41C247.526 106.517 247.516 106.625 247.483 106.727C247.45 106.83 247.397 106.924 247.325 107.004C247.254 107.085 247.167 107.15 247.069 107.194C246.971 107.239 246.865 107.263 246.758 107.264C246.65 107.265 246.544 107.244 246.445 107.202C246.346 107.159 246.257 107.097 246.184 107.018C241.59 102.954 235.834 100.437 229.73 99.8228C223.626 99.2085 217.483 100.528 212.17 103.595C206.858 106.662 202.645 111.32 200.128 116.912C197.611 122.503 196.917 128.744 198.145 134.751C198.165 134.85 198.166 134.952 198.146 135.052C198.127 135.151 198.089 135.246 198.033 135.33C197.977 135.414 197.905 135.487 197.821 135.544C197.737 135.6 197.643 135.64 197.544 135.66C197.499 135.674 197.452 135.681 197.405 135.683Z" fill="white"/>
<path d="M323.253 135.683C323.202 135.691 323.15 135.691 323.099 135.683C322.999 135.663 322.905 135.624 322.821 135.567C322.737 135.51 322.665 135.438 322.61 135.353C322.554 135.269 322.515 135.174 322.496 135.075C322.477 134.976 322.477 134.873 322.497 134.774C323.334 130.661 323.276 126.416 322.327 122.327C321.378 118.238 319.561 114.401 316.997 111.076C314.434 107.75 311.185 105.015 307.471 103.055C303.757 101.095 299.665 99.9558 295.472 99.7152C295.37 99.7097 295.271 99.6842 295.18 99.6404C295.088 99.5965 295.007 99.5351 294.939 99.4596C294.871 99.3842 294.819 99.2961 294.786 99.2005C294.752 99.1049 294.738 99.0037 294.743 98.9025C294.749 98.8013 294.774 98.7022 294.818 98.6109C294.862 98.5196 294.923 98.4378 294.999 98.3702C295.074 98.3026 295.162 98.2505 295.258 98.2169C295.354 98.1834 295.455 98.1689 295.556 98.1745C299.97 98.4273 304.278 99.6258 308.188 101.689C312.097 103.751 315.517 106.63 318.216 110.13C320.914 113.63 322.828 117.669 323.828 121.973C324.827 126.277 324.889 130.745 324.008 135.075C323.971 135.247 323.876 135.402 323.738 135.513C323.601 135.624 323.429 135.684 323.253 135.683Z" fill="white"/>
<path d="M206.203 228.372L205.064 229.411L267.447 297.71L268.585 296.671L206.203 228.372Z" fill="#131314"/>
<path d="M216.607 261.737L189.828 260.674L186.613 214.845L188.155 214.738L191.269 259.195L216.668 260.196L216.607 261.737Z" fill="#131314"/>
<path d="M278.706 309.854L208.258 285.634L212.236 272.676L213.708 273.131L210.162 284.663L279.207 308.398L278.706 309.854Z" fill="#131314"/>
<path d="M295.51 261.737L295.456 260.196L320.856 259.195L323.97 214.738L325.511 214.845L322.297 260.674L295.51 261.737Z" fill="#131314"/>
<path d="M272.932 296.265L272.431 294.809L301.954 284.663L298.108 272.145L299.588 271.698L303.866 285.634L272.932 296.265Z" fill="#131314"/>
<path d="M311.273 230.564L258.468 286.76L259.592 287.815L312.397 231.619L311.273 230.564Z" fill="#131314"/>
</g>
<defs>
<clipPath id="clip0_671_3155">
<rect width="570" height="593" fill="white"/>
</clipPath>
</defs>
</svg>
