<svg width="615" height="568" viewBox="0 0 615 568" fill="none" xmlns="http://www.w3.org/2000/svg">
<path fill-rule="evenodd" clip-rule="evenodd" d="M449.998 80.2584C450.255 79.4028 451.04 78.8154 451.934 78.8108C451.939 78.8107 451.944 78.8107 451.949 78.8108C452.761 78.8149 453.416 79.4768 453.412 80.2891C453.411 80.5845 453.41 80.7569 453.41 80.8062C453.41 80.8093 453.41 80.8129 453.41 80.8169C453.41 81.7801 452.639 82.5661 451.676 82.5844L451.415 82.5894C451.336 82.5909 451.257 82.5863 451.178 82.5757C450.326 82.4609 449.728 81.6769 449.843 80.8246C449.851 80.7639 449.902 80.5751 449.998 80.2584ZM456.915 113.461C457.172 112.605 457.958 112.018 458.851 112.013C458.856 112.013 458.861 112.013 458.866 112.013C459.678 112.018 460.334 112.679 460.329 113.492C460.328 113.787 460.327 113.96 460.327 114.009C460.327 114.012 460.327 114.016 460.327 114.02C460.327 114.983 459.556 115.769 458.593 115.787L458.333 115.792C458.253 115.794 458.174 115.789 458.095 115.778C457.243 115.664 456.645 114.88 456.76 114.027C456.768 113.967 456.82 113.778 456.915 113.461ZM251.529 89.2736C251.656 89.564 251.728 89.7382 251.742 89.7962C251.96 90.6367 251.454 91.494 250.614 91.711C250.541 91.7299 250.466 91.7435 250.391 91.7517L250.097 91.7838C249.134 91.8886 248.267 91.1985 248.152 90.237C248.147 90.189 248.127 90.0237 248.092 89.741C247.99 88.9151 248.578 88.1633 249.404 88.0619C250.302 87.9516 251.167 88.4443 251.529 89.2736ZM249.327 119.255C249.473 119.587 249.554 119.786 249.571 119.853C249.819 120.813 249.241 121.793 248.281 122.041C248.197 122.063 248.112 122.078 248.026 122.088L247.69 122.124C246.59 122.244 245.599 121.455 245.468 120.357C245.461 120.302 245.438 120.113 245.399 119.79C245.283 118.846 245.954 117.987 246.898 117.871C247.925 117.745 248.913 118.308 249.327 119.255ZM320.017 18.1066C320.462 16.6138 321.835 15.5908 323.393 15.5908C324.825 15.5908 325.986 16.7518 325.986 18.184C325.986 18.6773 325.986 18.9658 325.987 19.0494C325.993 20.7185 324.654 22.0814 322.985 22.1042L322.485 22.1111C322.355 22.1129 322.225 22.1053 322.096 22.0884C320.612 21.8939 319.567 20.5332 319.761 19.0494C319.775 18.9467 319.86 18.6324 320.017 18.1066Z" fill="#F6F0FF"/>
<path fill-rule="evenodd" clip-rule="evenodd" d="M285.89 286.328C287.489 298.819 288.757 305.966 289.695 307.771C291.101 310.478 298.341 312.959 299.725 312.959C300.647 312.959 334.772 315.841 402.1 321.605C407.172 321.605 411.553 320.107 415.242 317.109C416.73 315.9 416.58 314.171 417.317 311.575C418.045 309.014 418.737 303.596 419.393 295.32L402.1 286.328H285.89Z" fill="white"/>
<path d="M249.611 87.7413C248.5 87.8777 247.711 88.8882 247.847 89.9985C247.881 90.2802 247.902 90.4455 247.907 90.4926C248.055 91.7367 249.177 92.6295 250.423 92.4938L250.717 92.4618C250.817 92.4509 250.916 92.4328 251.013 92.4077C252.131 92.119 252.803 90.9787 252.515 89.8609C252.49 89.7632 252.417 89.5855 252.275 89.2599C251.82 88.2205 250.737 87.6031 249.611 87.7413ZM251.324 89.6759C251.436 89.9311 251.505 90.1019 251.51 90.1203C251.656 90.6833 251.317 91.2576 250.754 91.403C250.705 91.4157 250.655 91.4248 250.605 91.4303L250.31 91.4624C249.631 91.5364 249.018 91.0491 248.938 90.3702C248.932 90.3211 248.912 90.1558 248.877 89.8722C248.81 89.3306 249.195 88.8377 249.737 88.7712C250.408 88.6888 251.053 89.0567 251.324 89.6759ZM247.105 117.55C245.877 117.701 245.003 118.819 245.154 120.047C245.193 120.369 245.216 120.558 245.223 120.612C245.387 121.994 246.633 122.985 248.016 122.834L248.352 122.798C248.463 122.786 248.573 122.766 248.681 122.738C249.919 122.418 250.663 121.155 250.343 119.917C250.316 119.811 250.233 119.609 250.073 119.242C249.566 118.084 248.359 117.396 247.105 117.55ZM249.122 119.658C249.252 119.954 249.332 120.15 249.339 120.177C249.515 120.86 249.104 121.557 248.421 121.733C248.362 121.748 248.301 121.76 248.24 121.766L247.904 121.803C247.087 121.892 246.35 121.306 246.253 120.49C246.246 120.434 246.223 120.245 246.184 119.921C246.103 119.261 246.572 118.661 247.231 118.58C248.03 118.482 248.799 118.92 249.122 119.658ZM451.948 78.0372C450.826 78.0431 449.84 78.7804 449.517 79.8543C449.411 80.208 449.358 80.3996 449.345 80.5006C449.192 81.6368 449.989 82.682 451.125 82.8351C451.23 82.8493 451.336 82.8553 451.442 82.8533L451.702 82.8484C452.948 82.8247 453.945 81.8081 453.945 80.5622L453.945 80.5521C453.945 80.5038 453.946 80.3314 453.947 80.037C453.953 78.9382 453.067 78.0428 451.968 78.0372C451.958 78.0372 451.958 78.0372 451.948 78.0372ZM450.373 80.6392C450.376 80.6186 450.427 80.4327 450.511 80.153C450.702 79.5157 451.288 79.0783 451.953 79.0748C451.958 79.0748 451.958 79.0748 451.963 79.0748C452.488 79.0775 452.913 79.5059 452.91 80.0317C452.908 80.3282 452.908 80.5005 452.908 80.5508L452.908 80.5621C452.908 81.2427 452.363 81.798 451.682 81.811L451.422 81.8159C451.369 81.8169 451.316 81.8139 451.264 81.8068C450.695 81.7303 450.297 81.2075 450.373 80.6392ZM458.865 111.24C457.743 111.246 456.757 111.983 456.434 113.057C456.328 113.411 456.276 113.602 456.262 113.703C456.109 114.84 456.906 115.885 458.042 116.038C458.147 116.052 458.253 116.058 458.359 116.056L458.619 116.051C459.865 116.027 460.862 115.011 460.862 113.765L460.862 113.755C460.862 113.706 460.863 113.534 460.865 113.24C460.87 112.141 459.984 111.246 458.885 111.24C458.875 111.24 458.875 111.24 458.865 111.24ZM457.29 113.842C457.293 113.821 457.344 113.635 457.428 113.356C457.62 112.718 458.205 112.281 458.87 112.277C458.875 112.277 458.875 112.277 458.88 112.277C459.406 112.28 459.83 112.709 459.827 113.234C459.826 113.531 459.825 113.703 459.825 113.753L459.825 113.765C459.825 114.445 459.28 115.001 458.599 115.014L458.339 115.019C458.286 115.02 458.233 115.017 458.181 115.01C457.612 114.933 457.214 114.41 457.29 113.842ZM319.222 19.1178C318.99 20.8858 320.235 22.5069 322.003 22.7387C322.157 22.7588 322.312 22.7679 322.467 22.7657L322.967 22.7588C324.921 22.7321 326.488 21.1368 326.48 19.1832C326.48 19.1006 326.48 18.8122 326.48 18.3199C326.48 16.6011 325.086 15.2078 323.368 15.2078C321.58 15.2078 320.005 16.3815 319.494 18.0941C319.327 18.6568 319.24 18.9746 319.222 19.1178ZM323.368 16.2454C324.513 16.2454 325.442 17.1742 325.442 18.32C325.442 18.8142 325.442 19.1027 325.443 19.1873C325.448 20.5718 324.337 21.7024 322.953 21.7214L322.453 21.7282C322.348 21.7297 322.242 21.7236 322.138 21.7099C320.938 21.5526 320.093 20.4525 320.25 19.2527C320.259 19.1906 320.343 18.8797 320.489 18.3908C320.869 17.1178 322.039 16.2454 323.368 16.2454Z" fill="#67577F"/>
<path d="M288.78 111.487L284.4 120.66L249.713 119.62L249.682 120.657L285.045 121.717L289.943 111.459L310.538 110.97L310.513 109.933L289.342 110.436L285.746 96.2998L251.72 89.9938L251.531 91.014L284.904 97.1991L288.54 111.493L288.78 111.487Z" fill="#67577F"/>
<path fill-rule="evenodd" clip-rule="evenodd" d="M363.709 155.938L413.859 146.254L391.378 206.779H372.009L363.709 155.938Z" fill="#67577F"/>
<path fill-rule="evenodd" clip-rule="evenodd" d="M301.108 217.501L221.001 198.469C209.946 195.842 198.295 198.202 189.134 204.923L133.486 245.746C124.405 252.408 118.673 262.692 117.783 273.919L110.193 369.68H128.177L138.769 280.714C139.737 272.581 143.942 265.182 150.434 260.188L201.012 221.282C205.292 217.99 210.752 216.634 216.075 217.541L299.033 231.681L301.108 217.501Z" fill="white"/>
<path d="M301.69 217.106L221.121 197.964C209.918 195.302 198.111 197.693 188.827 204.504L133.179 245.328C123.977 252.079 118.168 262.5 117.267 273.878L109.631 370.199H128.638L139.284 280.776C140.236 272.781 144.369 265.508 150.75 260.599L201.328 221.693C205.494 218.489 210.808 217.169 215.988 218.052L299.469 232.282L301.69 217.106ZM298.597 231.081L216.163 217.03C210.697 216.098 205.09 217.49 200.696 220.871L150.118 259.777C143.515 264.856 139.238 272.381 138.254 280.653L127.717 369.161H110.754L118.301 273.96C119.179 262.883 124.834 252.737 133.793 246.165L189.441 205.341C198.48 198.71 209.974 196.382 220.881 198.973L300.526 217.896L298.597 231.081Z" fill="#67577F"/>
<path fill-rule="evenodd" clip-rule="evenodd" d="M299.419 312.425L294.191 291.515L392.762 298.087L393.889 301.009L402.096 321.072C408.023 320.82 412.073 319.811 414.227 318.087C416.146 316.552 417.63 310.79 418.572 300.928L403.483 289.576L411.092 208.163L427.348 237.215L419.91 297.359C419.912 297.384 419.912 297.409 419.91 297.434C418.975 309.825 417.346 316.92 414.875 318.898C412.494 320.802 408.218 321.861 402.029 322.114L402.1 322.297L299.725 313.651L299.681 313.476C293.449 313.256 288.281 308.576 287.448 302.394L285.345 286.799L286.373 286.66L288.476 302.255C289.229 307.837 293.826 312.086 299.419 312.425Z" fill="#67577F"/>
<path d="M281.74 121.958L285.329 139.906C288.697 156.744 305.063 167.674 321.907 164.334L413.513 146.169L403.338 103.12C396.185 72.8586 367.186 53.0046 336.386 57.2823C332.301 57.8496 327.924 58.6054 323.253 59.5495C294.574 65.3467 276.001 93.2674 281.74 121.958Z" fill="white"/>
<mask id="mask0_545_2332" style="mask-type:alpha" maskUnits="userSpaceOnUse" x="280" y="56" width="134" height="109">
<path d="M281.74 121.959L285.329 139.906C288.697 156.744 305.063 167.674 321.907 164.334L413.513 146.169L403.338 103.121C396.185 72.8589 367.186 53.0048 336.386 57.2826C332.301 57.8499 327.924 58.6056 323.253 59.5497C294.574 65.347 276.001 93.2676 281.74 121.959Z" fill="white"/>
</mask>
<g mask="url(#mask0_545_2332)">
<path fill-rule="evenodd" clip-rule="evenodd" d="M281.048 154.208L353.597 142.117C360.684 140.936 365.688 134.526 365.113 127.363L363.693 109.682C363.02 101.304 355.684 95.0578 347.306 95.7305C346.72 95.7775 346.138 95.8584 345.561 95.9729L269.98 110.976L281.048 154.208Z" fill="#F6F0FF"/>
<path d="M280.663 154.453L353.682 142.283C361.036 141.057 366.227 134.407 365.63 126.976L364.21 109.294C363.515 100.631 355.928 94.1719 347.265 94.8675C346.659 94.9162 346.056 94.9999 345.46 95.1182L269.342 110.228L280.663 154.453ZM270.619 111.032L345.662 96.1359C346.219 96.0254 346.782 95.9472 347.348 95.9018C355.44 95.2521 362.526 101.285 363.176 109.377L364.596 127.059C365.149 133.953 360.333 140.122 353.512 141.259L281.432 153.273L270.619 111.032Z" fill="#67577F"/>
</g>
<path d="M324.084 41.7032L323.935 22.0895C323.935 21.8029 323.703 21.5707 323.416 21.5707C323.13 21.5707 322.897 21.8029 322.897 22.0895L323.047 42.222C323.047 42.5086 323.279 42.7408 323.566 42.7408H337.582L329.677 57.8917C329.544 58.1457 329.643 58.4591 329.897 58.5916C330.151 58.7241 330.464 58.6256 330.597 58.3716L338.898 42.462C339.078 42.1166 338.827 41.7032 338.438 41.7032H324.084Z" fill="#67577F"/>
<path d="M281.232 122.06L284.821 140.008C288.245 157.126 304.884 168.239 322.008 164.843L413.614 146.678C413.903 146.62 414.086 146.335 414.018 146.049L403.843 103.001C396.629 72.4789 367.38 52.4539 336.315 56.7685C332.22 57.3373 327.832 58.0948 323.151 59.041C294.191 64.8949 275.437 93.0886 281.232 122.06ZM321.807 163.825C305.244 167.11 289.15 156.361 285.838 139.804L282.249 121.857C276.567 93.4462 294.958 65.7986 323.356 60.058C328.017 59.1159 332.384 58.362 336.458 57.7962C366.993 53.5553 395.742 73.2385 402.833 103.24L412.885 145.764L321.807 163.825Z" fill="#67577F"/>
<path fill-rule="evenodd" clip-rule="evenodd" d="M296.074 206.645L284.729 280.28C283.915 285.566 287.54 290.511 292.826 291.325C293.096 291.367 293.369 291.397 293.642 291.416L392.886 298.179C397.874 298.519 402.302 295.005 403.103 290.069L414.935 217.212C415.792 211.933 412.208 206.958 406.928 206.101C406.656 206.057 406.382 206.024 406.106 206.003L306.375 198.463C301.332 198.081 296.844 201.646 296.074 206.645Z" fill="white"/>
<path d="M295.561 206.566L284.216 280.201C283.358 285.77 287.177 290.98 292.746 291.838C293.031 291.882 293.318 291.914 293.606 291.934L392.85 298.696C398.106 299.054 402.77 295.352 403.615 290.152L415.446 217.295C416.35 211.733 412.573 206.492 407.011 205.589C406.724 205.542 406.435 205.508 406.145 205.486L306.414 197.945C301.1 197.544 296.372 201.299 295.561 206.566ZM296.586 206.724C297.315 201.992 301.562 198.619 306.335 198.98L406.066 206.52C406.327 206.54 406.587 206.571 406.845 206.613C411.841 207.424 415.234 212.133 414.422 217.129L402.59 289.986C401.832 294.657 397.642 297.983 392.921 297.661L293.676 290.898C293.418 290.881 293.16 290.852 292.904 290.813C287.901 290.042 284.47 285.361 285.241 280.359L296.586 206.724Z" fill="#67577F"/>
<path fill-rule="evenodd" clip-rule="evenodd" d="M105.953 368.803C105.641 374.819 110.265 379.949 116.281 380.261C116.458 380.271 116.635 380.275 116.813 380.276L122.74 380.294C128.834 380.312 133.79 375.386 133.808 369.292C133.808 369.275 133.808 369.259 133.808 369.242C133.799 363.066 128.885 358.014 122.711 357.835L117.995 357.698C111.63 357.513 106.282 362.444 105.953 368.803Z" fill="white"/>
<path fill-rule="evenodd" clip-rule="evenodd" d="M237.218 499.233L287.965 474.677L223.791 429.514L173.831 449.75" fill="white"/>
<path d="M105.607 369.132C105.28 375.434 110.124 380.808 116.427 381.135C116.612 381.145 116.798 381.15 116.984 381.15L122.911 381.168C129.292 381.187 134.481 376.03 134.5 369.649L134.5 369.597C134.49 363.14 129.353 357.859 122.899 357.672L118.183 357.535C111.536 357.342 105.952 362.492 105.607 369.132ZM106.643 369.186C106.959 363.109 112.069 358.395 118.152 358.572L122.869 358.709C128.762 358.88 133.453 363.703 133.462 369.598L133.462 369.646C133.445 375.454 128.722 380.148 122.914 380.131L116.987 380.113C116.818 380.112 116.649 380.108 116.48 380.099C110.75 379.802 106.346 374.916 106.643 369.186Z" fill="#67577F"/>
<path fill-rule="evenodd" clip-rule="evenodd" d="M102.585 499.233L48.2847 522.897C16.5866 488.777 0.792238 471.254 0.901688 470.326C1.01114 469.398 19.6876 462.48 56.9312 449.574L102.585 499.233Z" fill="white"/>
<path fill-rule="evenodd" clip-rule="evenodd" d="M108.116 567.312L230.552 566.475L237.469 499.378H102.584L74.5688 511.483L78.0275 539.498L108.116 567.312Z" fill="white"/>
<path fill-rule="evenodd" clip-rule="evenodd" d="M152.388 499.378V539.498L173.831 526.355L193.891 539.498V499.378H152.388Z" fill="#F6F0FF"/>
<path d="M107.604 567.254L77.5391 539.754L73.7727 512.21L48.1495 523.376L0 469.955L57.0766 449.315L102.946 498.714H237.1L286.947 474.594L223.725 430.101L174.177 450.612L173.788 449.65L223.86 428.927L288.986 474.76L237.97 499.446L231.022 566.846L107.64 567.689L107.604 567.254ZM107.48 565.735L102.115 499.859L74.761 511.779L78.5163 539.242L107.48 565.735ZM103.148 499.752L108.596 566.645L230.085 565.814L236.896 499.752H103.148ZM56.7836 450.524L1.80349 470.406L48.42 522.127L101.707 498.905L56.7836 450.524Z" fill="#67577F"/>
<path d="M193.607 539.932C193.952 540.158 194.41 539.91 194.41 539.498V499.378C194.41 499.091 194.178 498.859 193.891 498.859H152.388C152.101 498.859 151.869 499.091 151.869 499.378V539.498C151.869 539.903 152.313 540.152 152.659 539.94L173.822 526.969L193.607 539.932ZM193.372 499.897V538.538L174.115 525.921C173.947 525.811 173.731 525.808 173.56 525.913L152.906 538.571V499.897H193.372Z" fill="#67577F"/>
<path d="M291.941 122.726C291.613 121.039 292.715 119.405 294.403 119.077C296.09 118.749 297.724 119.851 298.052 121.538L299.9 131.045C300.228 132.732 299.126 134.366 297.438 134.694C295.751 135.022 294.117 133.92 293.789 132.232L291.941 122.726Z" fill="white"/>
<path d="M340.664 116.621C340.431 114.725 341.779 113 343.675 112.767C345.571 112.534 347.297 113.882 347.53 115.778L348.71 125.39C348.943 127.286 347.594 129.012 345.699 129.245C343.803 129.477 342.077 128.129 341.844 126.233L340.664 116.621Z" fill="white"/>
<path d="M344.018 112.725L343.332 112.809C341.626 113.019 340.412 114.572 340.622 116.278L341.886 126.577C342.096 128.283 343.649 129.496 345.355 129.287L346.042 129.203C347.748 128.993 348.961 127.44 348.752 125.734L347.487 115.435C347.278 113.729 345.725 112.515 344.018 112.725ZM344.145 113.755C345.282 113.615 346.318 114.424 346.457 115.562L347.722 125.86C347.862 126.998 347.053 128.033 345.915 128.173L345.229 128.257C344.091 128.397 343.056 127.588 342.916 126.45L341.651 116.152C341.512 115.014 342.321 113.979 343.458 113.839L344.145 113.755ZM343.844 114.14C342.706 114.28 341.897 115.315 342.037 116.453L343.217 126.065C343.357 127.202 344.392 128.011 345.53 127.872C346.667 127.732 347.476 126.696 347.336 125.559L346.156 115.947C346.017 114.809 344.981 114.001 343.844 114.14ZM348.569 112.848C348.854 112.878 349.109 112.672 349.139 112.387C349.169 112.102 348.963 111.846 348.678 111.816L339.097 110.803C338.812 110.773 338.556 110.979 338.526 111.264C338.496 111.549 338.703 111.805 338.988 111.835L348.569 112.848ZM290.227 120.107L299.219 116.648C299.487 116.545 299.62 116.245 299.517 115.978C299.414 115.71 299.114 115.577 298.847 115.68L289.854 119.138C289.587 119.241 289.454 119.541 289.556 119.809C289.659 120.076 289.959 120.209 290.227 120.107ZM317.584 133.772C318.933 132.105 320.672 131.166 322.829 130.939C326.411 130.562 327.211 130.66 329.972 131.86C330.235 131.974 330.54 131.853 330.655 131.59C330.769 131.328 330.648 131.022 330.385 130.908C327.449 129.633 326.471 129.513 322.72 129.907C320.291 130.162 318.3 131.238 316.777 133.119C316.597 133.342 316.631 133.668 316.854 133.849C317.077 134.029 317.403 133.995 317.584 133.772ZM294.816 118.673L294.133 118.781C292.435 119.05 291.276 120.644 291.545 122.342L293.168 132.59C293.437 134.288 295.032 135.447 296.73 135.178L297.413 135.07C299.111 134.801 300.269 133.206 300.001 131.508L298.377 121.26C298.108 119.562 296.514 118.404 294.816 118.673ZM294.978 119.698C296.11 119.518 297.173 120.291 297.353 121.423L298.976 131.671C299.155 132.803 298.383 133.866 297.251 134.045L296.568 134.153C295.436 134.332 294.373 133.56 294.193 132.428L292.57 122.18C292.391 121.048 293.163 119.985 294.295 119.806L294.978 119.698ZM294.691 120.093C293.559 120.273 292.787 121.336 292.966 122.468L294.481 132.032C294.66 133.164 295.723 133.937 296.855 133.757C297.987 133.578 298.759 132.515 298.58 131.383L297.065 121.818C296.886 120.686 295.823 119.914 294.691 120.093Z" fill="#67577F"/>
<path fill-rule="evenodd" clip-rule="evenodd" d="M236.779 499.233H102.585L56.9314 449.775H173.832L236.779 499.233ZM92.2657 530.849C89.8787 531.533 86.834 528.218 85.4651 523.444C84.0961 518.67 84.9215 514.245 87.3084 513.561C89.6954 512.876 92.7402 516.192 94.1091 520.965C95.478 525.739 94.6527 530.164 92.2657 530.849Z" fill="#67577F"/>
<path fill-rule="evenodd" clip-rule="evenodd" d="M364.424 315.002L383.242 423.289L376.852 544.686L357.645 561.999C356.51 563.022 356.419 564.772 357.442 565.907C357.967 566.489 358.714 566.821 359.498 566.821H420.084C411.462 501.743 404.485 453.207 399.151 421.213C393.998 390.302 386.936 354.171 377.965 312.823C377.413 310.278 375.161 308.463 372.557 308.463C371.945 308.463 371.356 308.463 370.791 308.463C370.321 308.463 369.812 308.493 369.264 308.554C366.226 308.892 364.038 311.629 364.376 314.666C364.388 314.778 364.404 314.89 364.424 315.002Z" fill="white"/>
<path d="M376.18 544.444L357.133 561.614C355.785 562.829 355.677 564.906 356.892 566.254C357.515 566.945 358.402 567.34 359.333 567.34H419.92C420.233 567.34 420.475 567.064 420.434 566.753C411.811 501.669 404.833 453.129 399.498 421.128C394.344 390.207 387.28 354.069 378.307 312.713C377.704 309.93 375.241 307.944 372.393 307.944H370.626C370.136 307.944 369.608 307.976 369.041 308.039C365.719 308.408 363.326 311.401 363.695 314.723C363.709 314.846 363.727 314.969 363.748 315.09L382.556 423.32L376.18 544.444ZM376.169 544.659L376.34 544.301L376.18 544.444L376.169 544.659ZM419.328 566.302H359.333C358.696 566.302 358.089 566.032 357.663 565.559C356.832 564.637 356.905 563.216 357.828 562.384L377.034 545.071C377.136 544.979 377.198 544.85 377.205 544.713L383.595 423.316L383.588 423.2L364.77 314.913C364.752 314.812 364.738 314.71 364.727 314.609C364.42 311.856 366.404 309.376 369.156 309.07C369.686 309.011 370.176 308.981 370.626 308.981H372.393C374.752 308.981 376.793 310.627 377.293 312.933C386.263 354.274 393.323 390.396 398.475 421.299C403.791 453.189 410.742 501.524 419.328 566.302Z" fill="#67577F"/>
<path fill-rule="evenodd" clip-rule="evenodd" d="M378.65 422.177C378.014 416.835 381.823 411.986 387.164 411.339L390.698 410.911C396.054 410.261 400.951 414.002 401.734 419.34C401.744 419.407 401.753 419.475 401.761 419.543C402.41 424.745 398.718 429.487 393.517 430.135L389.461 430.64C389.443 430.643 389.426 430.645 389.408 430.647C384.099 431.279 379.282 427.487 378.65 422.177ZM384.872 421.237C385.159 423.573 387.283 425.235 389.619 424.953L391.512 424.725C393.77 424.452 395.38 422.4 395.108 420.141C395.103 420.101 395.098 420.061 395.091 420.02C394.738 417.681 392.593 416.043 390.243 416.319L388.582 416.514C386.259 416.786 384.596 418.89 384.869 421.214C384.87 421.221 384.871 421.229 384.872 421.237Z" fill="#F6F0FF"/>
<path d="M377.882 422.484C377.212 416.858 381.224 411.751 386.848 411.069L390.383 410.641C396.018 409.958 401.17 413.893 401.994 419.51C402.005 419.581 402.014 419.653 402.023 419.725C402.707 425.21 398.814 430.211 393.328 430.895L389.272 431.4L389.216 431.407C383.622 432.073 378.548 428.078 377.882 422.484ZM378.912 422.361C379.51 427.386 384.069 430.975 389.094 430.377L389.144 430.371L393.2 429.865C398.117 429.253 401.606 424.77 400.994 419.853C400.986 419.789 400.977 419.724 400.967 419.66C400.225 414.601 395.584 411.056 390.508 411.671L386.973 412.099C381.916 412.712 378.31 417.303 378.912 422.361ZM384.101 421.519C383.795 418.912 385.661 416.55 388.268 416.244L389.93 416.049C392.558 415.74 394.956 417.572 395.351 420.188C395.358 420.234 395.364 420.279 395.37 420.325C395.677 422.868 393.864 425.178 391.321 425.485L389.429 425.714C386.808 426.03 384.426 424.165 384.104 421.545L384.101 421.519ZM389.304 424.684L391.196 424.455C393.171 424.217 394.578 422.423 394.34 420.449C394.335 420.413 394.331 420.378 394.325 420.343C394.014 418.28 392.123 416.836 390.051 417.079L388.389 417.274C386.351 417.513 384.892 419.36 385.131 421.398L385.134 421.419C385.386 423.471 387.252 424.931 389.304 424.684Z" fill="#67577F"/>
<path fill-rule="evenodd" clip-rule="evenodd" d="M336.629 312.704L302.491 422.129L352.926 514.942L349.786 547.202C349.638 548.723 350.751 550.076 352.272 550.224C353.019 550.297 353.765 550.062 354.336 549.575L401.001 509.754L389.934 498.686L318.79 422.78L349.793 315.11C350.589 312.347 348.994 309.462 346.231 308.666C345.763 308.531 345.278 308.463 344.79 308.463C344.302 308.463 343.801 308.433 343.285 308.373C340.314 308.031 337.519 309.849 336.629 312.704Z" fill="white"/>
<path d="M352.713 515.189L352.652 514.891L352.637 515.05L352.713 515.189ZM349.512 547.152C349.336 548.958 350.658 550.564 352.464 550.74C353.352 550.827 354.237 550.548 354.915 549.969L401.58 510.148C401.811 509.952 401.824 509.601 401.61 509.387L390.543 498.319L319.612 422.64L350.534 315.253C351.409 312.215 349.655 309.042 346.617 308.167C346.102 308.019 345.569 307.944 345.033 307.944C344.565 307.944 344.083 307.915 343.587 307.858C340.369 307.487 337.341 309.456 336.376 312.549L302.239 421.975C302.197 422.109 302.211 422.254 302.278 422.377L352.637 515.05L349.512 547.152ZM354.242 549.18C353.777 549.576 353.172 549.767 352.564 549.708C351.329 549.587 350.424 548.488 350.545 547.252L353.685 514.992C353.695 514.889 353.674 514.785 353.625 514.694L303.294 422.074L337.366 312.858C338.183 310.241 340.745 308.575 343.468 308.889C344.003 308.95 344.525 308.981 345.033 308.981C345.472 308.981 345.908 309.043 346.33 309.164C348.818 309.881 350.254 312.478 349.537 314.966L318.533 422.636C318.483 422.812 318.528 423.001 318.653 423.135L389.797 499.041L400.48 509.724L354.242 549.18Z" fill="#67577F"/>
<path fill-rule="evenodd" clip-rule="evenodd" d="M299.902 425.371C298.901 420.162 302.226 415.103 307.404 413.955L311.09 413.138C316.095 412.029 321.071 415.114 322.304 420.09C323.528 425.032 320.518 430.033 315.578 431.265L310.942 432.421C310.783 432.46 310.623 432.496 310.462 432.526C305.57 433.467 300.842 430.263 299.902 425.371ZM306.114 424.315C306.557 426.466 308.659 427.852 310.81 427.41C310.845 427.402 310.881 427.394 310.916 427.386L313.218 426.847C315.29 426.361 316.577 424.287 316.091 422.215C316.083 422.181 316.075 422.147 316.066 422.113C315.501 419.966 313.354 418.637 311.18 419.089L309.293 419.481C307.082 419.94 305.66 422.103 306.114 424.315Z" fill="#F6F0FF"/>
<path d="M299.464 425.683C298.41 420.199 301.911 414.872 307.363 413.663L311.049 412.847C316.328 411.676 321.578 414.93 322.878 420.18C324.172 425.4 320.993 430.682 315.774 431.983L311.139 433.139C310.971 433.18 310.801 433.218 310.631 433.251C305.458 434.245 300.458 430.857 299.464 425.683ZM300.483 425.488C301.369 430.098 305.825 433.118 310.435 432.232C310.587 432.202 310.738 432.169 310.888 432.132L315.523 430.976C320.186 429.813 323.027 425.094 321.871 420.429C320.706 415.726 316.003 412.811 311.273 413.859L307.588 414.676C302.684 415.763 299.535 420.555 300.483 425.488ZM305.677 424.634C305.165 422.142 306.767 419.705 309.259 419.188L311.146 418.796C313.59 418.288 316.003 419.782 316.638 422.196C316.648 422.234 316.658 422.273 316.667 422.311C317.218 424.662 315.759 427.015 313.407 427.566L311.106 428.106C311.066 428.115 311.025 428.124 310.985 428.132C308.553 428.632 306.177 427.066 305.677 424.634ZM306.694 424.426C307.078 426.296 308.906 427.5 310.776 427.116C310.807 427.11 310.838 427.103 310.869 427.096L313.171 426.556C314.964 426.136 316.077 424.341 315.657 422.548C315.65 422.519 315.643 422.489 315.635 422.46C315.14 420.58 313.26 419.416 311.357 419.812L309.47 420.204C307.538 420.605 306.296 422.494 306.694 424.426Z" fill="#67577F"/>
<path fill-rule="evenodd" clip-rule="evenodd" d="M232.611 357.726C233.576 354.463 236.583 352.23 239.987 352.25C243.13 352.268 245.673 354.811 245.691 357.953C245.698 358.978 245.701 359.579 245.703 359.755C245.703 359.76 245.703 359.764 245.703 359.769C245.731 363.358 242.844 366.29 239.255 366.318L237.995 366.327C237.731 366.329 237.467 366.314 237.205 366.281C233.969 365.87 231.678 362.913 232.089 359.677C232.116 359.461 232.29 358.81 232.611 357.726ZM201.483 282.329C202.449 279.065 205.456 276.832 208.859 276.852C212.002 276.87 214.545 279.413 214.564 282.556C214.57 283.58 214.574 284.181 214.576 284.358C214.576 284.362 214.576 284.367 214.576 284.371C214.604 287.96 211.717 290.892 208.128 290.92L206.867 290.93C206.603 290.932 206.339 290.916 206.077 290.883C202.841 290.472 200.55 287.515 200.961 284.279C200.989 284.063 201.163 283.413 201.483 282.329ZM522.443 267.111C523.408 263.847 526.415 261.614 529.819 261.634C532.961 261.652 535.505 264.195 535.523 267.338C535.529 268.362 535.533 268.963 535.535 269.14C535.535 269.144 535.535 269.149 535.535 269.153C535.563 272.742 532.676 275.674 529.087 275.702L527.826 275.712C527.562 275.714 527.298 275.698 527.037 275.665C523.8 275.254 521.51 272.298 521.92 269.061C521.948 268.845 522.122 268.195 522.443 267.111ZM454.654 381.245C455.619 377.981 458.626 375.748 462.03 375.768C465.172 375.786 467.716 378.329 467.734 381.472C467.74 382.497 467.744 383.097 467.746 383.274C467.746 383.278 467.746 383.283 467.746 383.287C467.774 386.876 464.887 389.808 461.298 389.836L460.038 389.846C459.774 389.848 459.51 389.832 459.248 389.799C456.011 389.388 453.721 386.432 454.132 383.195C454.159 382.979 454.333 382.329 454.654 381.245ZM543.886 422.748C544.852 419.484 547.858 417.252 551.262 417.271C554.405 417.29 556.948 419.833 556.967 422.975C556.973 424 556.977 424.601 556.978 424.777C556.978 424.782 556.978 424.786 556.978 424.791C557.006 428.38 554.119 431.312 550.53 431.34L549.27 431.349C549.006 431.351 548.742 431.336 548.48 431.302C545.244 430.892 542.953 427.935 543.364 424.699C543.391 424.482 543.565 423.832 543.886 422.748ZM469.18 154.36C470.146 151.096 473.152 148.864 476.556 148.883C479.699 148.901 482.242 151.444 482.261 154.587C482.267 155.612 482.271 156.212 482.272 156.389C482.272 156.393 482.272 156.398 482.272 156.402C482.3 159.991 479.413 162.923 475.824 162.951L474.564 162.961C474.3 162.963 474.036 162.947 473.774 162.914C470.538 162.503 468.247 159.547 468.658 156.31C468.685 156.094 468.859 155.444 469.18 154.36ZM60.3721 331.441C61.3376 328.177 64.3443 325.944 67.748 325.964C70.8907 325.982 73.434 328.525 73.4526 331.668C73.4587 332.693 73.4626 333.293 73.4643 333.47C73.4644 333.474 73.4644 333.479 73.4644 333.483C73.4923 337.072 70.6055 340.004 67.0165 340.032L65.7557 340.042C65.4918 340.044 65.2279 340.028 64.966 339.995C61.7297 339.584 59.4391 336.628 59.8499 333.391C59.8773 333.175 60.0514 332.525 60.3721 331.441ZM143.379 180.645C144.344 177.382 147.351 175.149 150.755 175.169C153.897 175.187 156.441 177.73 156.459 180.873C156.465 181.897 156.469 182.498 156.471 182.674C156.471 182.679 156.471 182.683 156.471 182.688C156.499 186.277 153.612 189.209 150.023 189.237L148.762 189.246C148.498 189.248 148.235 189.233 147.973 189.2C144.736 188.789 142.446 185.832 142.857 182.596C142.884 182.38 143.058 181.729 143.379 180.645Z" fill="#F6F0FF"/>
<path fill-rule="evenodd" clip-rule="evenodd" d="M106.522 419.381C100.616 415.534 96.5664 409.014 96.1693 401.436C95.5095 388.847 105.181 378.106 117.77 377.446C130.36 376.786 141.101 386.457 141.76 399.047C142.165 406.765 138.686 413.789 133.033 418.221L124.507 407.324C126.734 405.578 128.104 402.812 127.945 399.771C127.685 394.811 123.454 391.002 118.494 391.261C113.535 391.521 109.725 395.753 109.985 400.712C110.141 403.697 111.736 406.266 114.063 407.781L106.522 419.381Z" fill="#F6F0FF"/>
<path d="M106.997 420.317L106.562 420.033C100.347 415.986 96.3699 409.229 95.9743 401.681C95.2995 388.805 105.19 377.82 118.066 377.145C130.942 376.471 141.927 386.361 142.602 399.237C143.005 406.927 139.623 414.184 133.676 418.846L133.267 419.167L124.102 407.453L124.51 407.133C126.669 405.441 127.896 402.807 127.75 400.016C127.505 395.342 123.518 391.752 118.844 391.997C114.171 392.242 110.581 396.229 110.826 400.902C110.97 403.643 112.413 406.094 114.669 407.564L115.104 407.847L106.997 420.317ZM106.697 418.876L113.676 408.139C111.39 406.468 109.942 403.855 109.79 400.957C109.515 395.711 113.544 391.236 118.79 390.961C124.036 390.686 128.511 394.716 128.786 399.961C128.941 402.918 127.723 405.717 125.549 407.619L133.441 417.705C138.873 413.241 141.941 406.464 141.565 399.291C140.921 386.988 130.424 377.537 118.12 378.182C105.817 378.826 96.3656 389.323 97.0104 401.627C97.3792 408.664 101.005 414.979 106.697 418.876Z" fill="#67577F"/>
<path fill-rule="evenodd" clip-rule="evenodd" d="M429.397 245.766L560.227 194.38C563.072 193.263 566.284 194.663 567.401 197.508C567.536 197.85 567.636 198.205 567.7 198.568L593.785 346.17C594.117 348.051 592.862 349.846 590.981 350.178C590.331 350.293 589.662 350.22 589.053 349.967L425.757 282.177V298.779L590.636 370.71C599.04 374.376 608.825 370.535 612.491 362.132C613.757 359.231 614.167 356.028 613.673 352.902L587.483 187.204C585.753 176.261 575.48 168.792 564.537 170.522C562.914 170.778 561.33 171.233 559.818 171.876L423.364 229.905C420.365 231.18 418.511 234.224 418.754 237.474C418.825 238.432 418.969 239.383 419.186 240.328C419.193 240.358 419.2 240.389 419.207 240.419C420.165 244.511 424.259 247.051 428.351 246.093C428.707 246.009 429.057 245.9 429.397 245.766Z" fill="white"/>
<path d="M429.794 246.249L560.624 194.863C563.202 193.85 566.113 195.119 567.125 197.697C567.247 198.008 567.338 198.33 567.396 198.658L593.481 346.261C593.763 347.86 592.696 349.385 591.097 349.667C590.545 349.765 589.976 349.702 589.459 349.487L425.445 281.4V299.118L590.636 371.185C599.302 374.966 609.393 371.006 613.173 362.339C614.479 359.347 614.901 356.045 614.392 352.821L588.202 187.123C586.427 175.897 575.889 168.235 564.663 170.009C562.998 170.272 561.373 170.739 559.822 171.398L423.368 229.427C420.164 230.79 418.184 234.041 418.443 237.513C418.517 238.497 418.665 239.474 418.887 240.444C418.898 240.491 418.898 240.491 418.909 240.538C419.932 244.908 424.305 247.621 428.676 246.598C429.056 246.509 429.43 246.392 429.794 246.249ZM426.483 282.954L589.061 350.446C589.761 350.737 590.531 350.821 591.278 350.689C593.441 350.307 594.885 348.243 594.502 346.08L568.417 198.477C568.347 198.081 568.238 197.693 568.091 197.318C566.869 194.207 563.356 192.675 560.245 193.897L429.414 245.283C429.097 245.408 428.771 245.51 428.439 245.587C424.627 246.48 420.812 244.114 419.919 240.301C419.909 240.257 419.909 240.257 419.898 240.212C419.688 239.293 419.548 238.367 419.478 237.435C419.252 234.407 420.979 231.571 423.774 230.382L560.228 172.353C561.7 171.727 563.244 171.284 564.825 171.034C575.485 169.349 585.492 176.625 587.177 187.285L613.367 352.983C613.846 356.011 613.449 359.114 612.222 361.924C608.671 370.065 599.192 373.786 591.051 370.234L426.483 298.439V282.954Z" fill="#67577F"/>
<path fill-rule="evenodd" clip-rule="evenodd" d="M430.817 345.694C424.196 343.275 418.784 337.832 416.692 330.538C413.217 318.419 420.224 305.778 432.343 302.304C444.461 298.829 457.102 305.836 460.577 317.954C462.708 325.384 460.898 333.01 456.386 338.6L445.628 329.901C447.405 327.699 448.118 324.694 447.279 321.767C445.91 316.993 440.93 314.233 436.156 315.602C431.382 316.971 428.622 321.951 429.991 326.725C430.815 329.598 432.947 331.742 435.555 332.695L430.817 345.694Z" fill="#F6F0FF"/>
<path d="M431.102 346.41L430.615 346.231C423.648 343.686 418.253 337.997 416.17 330.731C412.616 318.337 419.782 305.409 432.176 301.855C444.57 298.301 457.498 305.467 461.052 317.861C463.175 325.264 461.513 333.095 456.766 338.976L456.44 339.38L444.875 330.028L445.2 329.625C446.924 327.49 447.527 324.648 446.756 321.96C445.466 317.462 440.774 314.861 436.275 316.151C431.777 317.441 429.176 322.133 430.465 326.632C431.222 329.27 433.18 331.334 435.709 332.258L436.196 332.436L431.102 346.41ZM434.871 333.042C432.267 331.927 430.268 329.708 429.468 326.918C428.02 321.868 430.94 316.601 435.989 315.153C441.039 313.706 446.306 316.625 447.754 321.674C448.57 324.52 448.012 327.522 446.322 329.864L456.28 337.916C460.569 332.345 462.034 325.052 460.055 318.147C456.659 306.304 444.305 299.456 432.462 302.852C420.619 306.248 413.771 318.602 417.167 330.445C419.109 337.219 424.063 342.557 430.485 345.073L434.871 333.042Z" fill="#67577F"/>
<path fill-rule="evenodd" clip-rule="evenodd" d="M434.498 305.972C440.463 305.13 444.617 299.612 443.775 293.647C443.75 293.472 443.721 293.297 443.688 293.122L442.574 287.301C441.43 281.315 435.649 277.39 429.663 278.535C429.646 278.538 429.63 278.541 429.614 278.544C423.553 279.732 419.532 285.52 420.534 291.614L421.299 296.27C422.332 302.553 428.193 306.862 434.498 305.972Z" fill="white"/>
<path d="M434.448 306.329C440.697 305.447 445.048 299.667 444.166 293.418C444.14 293.234 444.11 293.05 444.075 292.868L442.961 287.046C441.763 280.779 435.71 276.67 429.443 277.868L429.391 277.878C423.055 279.12 418.852 285.17 419.899 291.541L420.664 296.197C421.743 302.758 427.864 307.258 434.448 306.329ZM434.303 305.301C428.277 306.151 422.675 302.034 421.688 296.029L420.923 291.373C419.967 285.555 423.805 280.03 429.591 278.897L429.638 278.887C435.342 277.796 440.851 281.536 441.942 287.241L443.056 293.063C443.088 293.229 443.115 293.395 443.139 293.563C443.94 299.244 439.985 304.5 434.303 305.301Z" fill="#67577F"/>
<path d="M313.144 209.559L399.278 215.782C401.945 215.974 403.951 218.293 403.758 220.96C403.751 221.06 403.741 221.161 403.727 221.26L395.428 282.601C395.079 285.177 392.759 287.018 390.172 286.773L302.726 278.478C300.064 278.226 298.111 275.863 298.363 273.201C298.373 273.094 298.387 272.988 298.404 272.883L308.015 213.613C308.417 211.138 310.642 209.378 313.144 209.559ZM303.192 273.607L390.653 282.024L399.024 220.618L312.795 214.388L303.192 273.607ZM336.428 248.283C332.989 248.283 330.202 245.495 330.202 242.057C330.202 238.619 332.989 235.832 336.428 235.832C339.866 235.832 342.653 238.619 342.653 242.057C342.653 245.495 339.866 248.283 336.428 248.283ZM326.895 255.71L371.747 258.847L371.554 261.607L326.702 258.47L326.895 255.71ZM364.937 250.334L359.278 243.59L366.022 237.931L371.682 244.675L364.937 250.334Z" fill="#F6F0FF"/>
<path fill-rule="evenodd" clip-rule="evenodd" d="M566.038 170.81C570.454 170.409 573.797 170.755 576.068 171.848C578.338 172.941 581.22 175.592 584.714 179.802L566.729 196.058C565.807 195.366 565.115 194.905 564.654 194.674C564.193 194.444 563.386 194.213 562.233 193.983L566.038 170.81ZM195.65 201.583C198.644 200.035 201.401 199 203.921 198.479C206.441 197.958 210.361 197.612 215.68 197.441L211.184 217.501L208.763 217.847L206.363 218.634L195.65 201.583ZM118.075 271.502C119.03 267.422 119.976 264.294 120.914 262.117C121.853 259.941 123.605 256.808 126.172 252.719L142.012 270.072L140.906 272.254L140.175 274.671L118.075 271.502ZM614.112 355.154C612.927 361.017 611.428 364.937 609.616 366.913C607.804 368.89 604.23 370.504 598.894 371.755L590.594 350.312C591.856 349.937 592.672 349.569 593.04 349.208C593.408 348.847 593.746 348.178 594.052 347.199L614.112 355.154Z" fill="#67577F"/>
<path d="M411.101 109.025L417.665 119.06L456.669 113.23L456.822 114.256L417.161 120.185L410.15 109.466L386.241 111.838C385.956 111.866 385.702 111.658 385.673 111.373C385.645 111.088 385.853 110.834 386.139 110.805L410.131 108.425L412.23 91.9049L449.672 80.0455C449.945 79.959 450.236 80.1102 450.323 80.3834C450.409 80.6565 450.258 80.9481 449.985 81.0346L413.176 92.6937L411.101 109.025Z" fill="#67577F"/>
<path d="M313.167 266.784C312.867 266.758 312.653 266.482 312.701 266.185L319.272 225.719C319.315 225.453 319.555 225.264 319.823 225.285L388.65 230.473C388.949 230.495 389.166 230.766 389.124 231.063L383.245 272.566C383.206 272.839 382.96 273.035 382.685 273.01L313.167 266.784ZM320.22 226.355L313.814 265.801L382.287 271.933L388.019 231.466L320.22 226.355ZM312.868 209.195L399.002 215.418C401.955 215.631 404.176 218.198 403.962 221.151C403.954 221.262 403.943 221.373 403.928 221.483L395.628 282.824C395.242 285.676 392.674 287.714 389.81 287.442L302.364 279.148C299.416 278.869 297.254 276.253 297.533 273.305C297.544 273.187 297.559 273.07 297.578 272.953L307.19 213.684C307.634 210.943 310.098 208.995 312.868 209.195ZM312.793 210.23C310.559 210.069 308.572 211.639 308.214 213.85L298.603 273.119C298.587 273.214 298.575 273.308 298.566 273.403C298.341 275.78 300.085 277.89 302.462 278.115L389.908 286.409C392.218 286.629 394.289 284.985 394.6 282.685L402.9 221.344C402.912 221.255 402.921 221.166 402.927 221.076C403.1 218.695 401.308 216.625 398.927 216.452L312.793 210.23ZM302.278 274.224L312.045 213.99L399.299 220.294L390.787 282.742L302.278 274.224ZM389.893 281.613L398.122 221.249L312.917 215.094L303.479 273.297L389.893 281.613ZM336.386 248.802C332.661 248.802 329.641 245.782 329.641 242.057C329.641 238.333 332.661 235.313 336.386 235.313C340.11 235.313 343.13 238.333 343.13 242.057C343.13 245.782 340.11 248.802 336.386 248.802ZM336.386 247.764C339.537 247.764 342.092 245.209 342.092 242.057C342.092 238.906 339.537 236.351 336.386 236.351C333.234 236.351 330.679 238.906 330.679 242.057C330.679 245.209 333.234 247.764 336.386 247.764ZM326.372 255.157L372.259 258.366L371.994 262.161L326.106 258.952L326.372 255.157ZM327.214 257.989L371.031 261.053L371.152 259.328L327.334 256.264L327.214 257.989ZM364.832 251.065L358.505 243.526L366.045 237.2L372.371 244.739L364.832 251.065ZM370.909 244.611L365.917 238.662L359.967 243.654L364.959 249.604L370.909 244.611Z" fill="#67577F"/>
<path d="M384.806 545.205V544.167V545.205ZM384.806 544.167C385.498 544.167 385.498 545.205 384.806 545.205H376.851C376.16 545.205 376.16 544.167 376.851 544.167H384.806H392.761C393.453 544.167 393.453 545.205 392.761 545.205H384.806C384.115 545.205 384.115 544.167 384.806 544.167ZM360.065 509.979L359.398 509.183L360.065 509.979ZM360.065 509.979L353.666 515.339C353.136 515.784 352.47 514.988 353 514.544L359.398 509.183L365.797 503.822C366.327 503.378 366.993 504.174 366.463 504.618L360.065 509.979Z" fill="#67577F"/>
</svg>
